<svg width="850" height="500" viewBox="0 0 850 500" fill="none" xmlns="http://www.w3.org/2000/svg">
<path opacity="0.04" d="M261.782 499.262C224.604 499.262 189.951 493.295 157.822 481.361C126.153 468.969 98.6137 451.528 75.2056 429.037C51.7975 406.547 33.4382 380.156 20.1277 349.863C7.27621 319.57 0.850458 286.294 0.850458 250.034C0.850458 213.775 7.27621 180.499 20.1277 150.206C33.4382 119.913 51.7975 93.5214 75.2056 71.0313C99.0727 48.5412 126.841 31.3293 158.511 19.3958C190.181 7.00327 224.834 0.807026 262.47 0.807026C304.238 0.807026 341.874 8.15074 375.38 22.8382C409.345 37.0666 437.801 58.1798 460.751 86.1777L389.149 152.271C372.626 133.453 354.267 119.454 334.072 110.274C313.876 100.636 291.845 95.8163 267.978 95.8163C245.488 95.8163 224.834 99.4882 206.015 106.832C187.197 114.176 170.903 124.732 157.134 138.502C143.364 152.271 132.578 168.565 124.776 187.383C117.432 206.202 113.76 227.085 113.76 250.034C113.76 272.983 117.432 293.867 124.776 312.685C132.578 331.504 143.364 347.798 157.134 361.567C170.903 375.336 187.197 385.893 206.015 393.237C224.834 400.581 245.488 404.252 267.978 404.252C291.845 404.252 313.876 399.663 334.072 390.483C354.267 380.844 372.626 366.386 389.149 347.109L460.751 413.203C437.801 441.2 409.345 462.543 375.38 477.231C341.874 491.918 304.008 499.262 261.782 499.262ZM760.064 499.262C721.969 499.262 686.627 493.065 654.039 480.673C621.911 468.28 593.913 450.839 570.046 428.349C546.638 405.859 528.278 379.467 514.968 349.174C502.116 318.882 495.691 285.835 495.691 250.034C495.691 214.234 502.116 181.187 514.968 150.894C528.278 120.601 546.867 94.2099 570.734 71.7198C594.601 49.2296 622.599 31.7883 654.728 19.3958C686.857 7.00327 721.739 0.807026 759.376 0.807026C797.471 0.807026 832.354 7.00327 864.024 19.3958C896.153 31.7883 923.921 49.2296 947.329 71.7198C971.196 94.2099 989.785 120.601 1003.1 150.894C1016.41 180.728 1023.06 213.775 1023.06 250.034C1023.06 285.835 1016.41 319.111 1003.1 349.863C989.785 380.156 971.196 406.547 947.329 429.037C923.921 451.069 896.153 468.28 864.024 480.673C832.354 493.065 797.701 499.262 760.064 499.262ZM759.376 404.252C780.948 404.252 800.684 400.581 818.585 393.237C836.944 385.893 853.008 375.336 866.778 361.567C880.547 347.798 891.104 331.504 898.447 312.685C906.25 293.867 910.152 272.983 910.152 250.034C910.152 227.085 906.25 206.202 898.447 187.383C891.104 168.565 880.547 152.271 866.778 138.502C853.467 124.732 837.632 114.176 819.273 106.832C800.914 99.4882 780.948 95.8163 759.376 95.8163C737.804 95.8163 717.838 99.4882 699.479 106.832C681.578 114.176 665.744 124.732 651.974 138.502C638.205 152.271 627.419 168.565 619.616 187.383C612.272 206.202 608.6 227.085 608.6 250.034C608.6 272.524 612.272 293.408 619.616 312.685C627.419 331.504 637.975 347.798 651.286 361.567C665.055 375.336 681.119 385.893 699.479 393.237C717.838 400.581 737.804 404.252 759.376 404.252Z" fill="#231F1E"/>
</svg>
