<svg width="301" height="39" viewBox="0 0 301 39" fill="none" xmlns="http://www.w3.org/2000/svg">
<g clip-path="url(#clip0_61_805)">
<path d="M15 4.96875C6.97266 4.96875 0.46875 11.4727 0.46875 19.5C0.46875 27.5273 6.97266 34.0312 15 34.0312C23.0273 34.0312 29.5312 27.5273 29.5312 19.5C29.5312 11.4727 23.0273 4.96875 15 4.96875ZM20.4193 23.3086L19.2475 24.7734C19.1706 24.8696 19.0755 24.9496 18.9676 25.009C18.8598 25.0684 18.7413 25.106 18.6189 25.1196C18.4965 25.1332 18.3727 25.1226 18.2544 25.0883C18.1362 25.0541 18.0258 24.9968 17.9297 24.9199L14.0039 22.0066C13.7296 21.787 13.5082 21.5085 13.3561 21.1918C13.2039 20.875 13.125 20.5281 13.125 20.1768V11.0625C13.125 10.8139 13.2238 10.5754 13.3996 10.3996C13.5754 10.2238 13.8139 10.125 14.0625 10.125H15.9375C16.1861 10.125 16.4246 10.2238 16.6004 10.3996C16.7762 10.5754 16.875 10.8139 16.875 11.0625V19.5L20.2734 21.9902C20.3696 22.0672 20.4497 22.1623 20.5091 22.2703C20.5685 22.3782 20.606 22.4967 20.6196 22.6192C20.6331 22.7416 20.6224 22.8655 20.5881 22.9838C20.5537 23.1021 20.4964 23.2125 20.4193 23.3086Z" fill="#F47721"/>
</g>
<path d="M59.288 31L51.864 8.6H56.184L62.808 28.856H60.664L67.544 8.6H71.384L78.072 28.856H75.992L82.776 8.6H86.744L79.32 31H74.904L68.792 12.728H69.944L63.736 31H59.288ZM96.1478 31.224C94.3984 31.224 92.8411 30.8507 91.4758 30.104C90.1104 29.336 89.0331 28.2907 88.2438 26.968C87.4544 25.6453 87.0598 24.1413 87.0598 22.456C87.0598 20.7493 87.4544 19.2453 88.2438 17.944C89.0331 16.6213 90.1104 15.5867 91.4758 14.84C92.8411 14.0933 94.3984 13.72 96.1478 13.72C97.9184 13.72 99.4864 14.0933 100.852 14.84C102.238 15.5867 103.316 16.6107 104.084 17.912C104.873 19.2133 105.268 20.728 105.268 22.456C105.268 24.1413 104.873 25.6453 104.084 26.968C103.316 28.2907 102.238 29.336 100.852 30.104C99.4864 30.8507 97.9184 31.224 96.1478 31.224ZM96.1478 27.8C97.1291 27.8 98.0038 27.5867 98.7718 27.16C99.5398 26.7333 100.137 26.1147 100.564 25.304C101.012 24.4933 101.236 23.544 101.236 22.456C101.236 21.3467 101.012 20.3973 100.564 19.608C100.137 18.7973 99.5398 18.1787 98.7718 17.752C98.0038 17.3253 97.1398 17.112 96.1798 17.112C95.1984 17.112 94.3238 17.3253 93.5558 17.752C92.8091 18.1787 92.2118 18.7973 91.7638 19.608C91.3158 20.3973 91.0918 21.3467 91.0918 22.456C91.0918 23.544 91.3158 24.4933 91.7638 25.304C92.2118 26.1147 92.8091 26.7333 93.5558 27.16C94.3238 27.5867 95.1878 27.8 96.1478 27.8ZM109.093 31V13.912H112.901V18.616L112.453 17.24C112.965 16.088 113.765 15.2133 114.853 14.616C115.962 14.0187 117.338 13.72 118.981 13.72V17.528C118.81 17.4853 118.65 17.464 118.501 17.464C118.351 17.4427 118.202 17.432 118.053 17.432C116.538 17.432 115.333 17.88 114.437 18.776C113.541 19.6507 113.093 20.9627 113.093 22.712V31H109.093ZM125.638 27.192L125.734 22.168L134.662 13.912H139.462L131.878 21.528L129.766 23.288L125.638 27.192ZM122.374 31V7.256H126.374V31H122.374ZM135.27 31L129.03 23.288L131.558 20.088L140.134 31H135.27ZM142.718 31V13.912H146.718V31H142.718ZM144.734 11.096C143.987 11.096 143.368 10.8613 142.878 10.392C142.408 9.92267 142.174 9.35733 142.174 8.696C142.174 8.01333 142.408 7.448 142.878 7C143.368 6.53067 143.987 6.296 144.734 6.296C145.48 6.296 146.088 6.52 146.558 6.968C147.048 7.39467 147.294 7.93867 147.294 8.6C147.294 9.304 147.059 9.90133 146.59 10.392C146.12 10.8613 145.502 11.096 144.734 11.096ZM161.664 13.72C163.029 13.72 164.245 13.9867 165.312 14.52C166.4 15.0533 167.253 15.8747 167.872 16.984C168.49 18.072 168.8 19.48 168.8 21.208V31H164.8V21.72C164.8 20.2053 164.437 19.0747 163.712 18.328C163.008 17.5813 162.016 17.208 160.736 17.208C159.797 17.208 158.965 17.4 158.24 17.784C157.514 18.168 156.949 18.744 156.544 19.512C156.16 20.2587 155.968 21.208 155.968 22.36V31H151.968V13.912H155.776V18.52L155.104 17.112C155.701 16.024 156.565 15.192 157.696 14.616C158.848 14.0187 160.17 13.72 161.664 13.72ZM181.649 37.432C180.071 37.432 178.524 37.2187 177.009 36.792C175.516 36.3867 174.289 35.7893 173.329 35L175.121 31.992C175.868 32.6107 176.807 33.1013 177.937 33.464C179.089 33.848 180.252 34.04 181.425 34.04C183.303 34.04 184.679 33.6027 185.553 32.728C186.428 31.8747 186.865 30.584 186.865 28.856V25.816L187.185 21.944L187.057 18.072V13.912H190.865V28.408C190.865 31.5013 190.076 33.7733 188.497 35.224C186.919 36.696 184.636 37.432 181.649 37.432ZM181.137 30.232C179.516 30.232 178.044 29.8907 176.721 29.208C175.42 28.504 174.385 27.5333 173.617 26.296C172.871 25.0587 172.497 23.608 172.497 21.944C172.497 20.3013 172.871 18.8613 173.617 17.624C174.385 16.3867 175.42 15.4267 176.721 14.744C178.044 14.0613 179.516 13.72 181.137 13.72C182.588 13.72 183.889 14.008 185.041 14.584C186.193 15.16 187.111 16.056 187.793 17.272C188.497 18.488 188.849 20.0453 188.849 21.944C188.849 23.8427 188.497 25.4107 187.793 26.648C187.111 27.864 186.193 28.7707 185.041 29.368C183.889 29.944 182.588 30.232 181.137 30.232ZM181.745 26.84C182.748 26.84 183.644 26.6373 184.433 26.232C185.223 25.8053 185.831 25.2293 186.257 24.504C186.705 23.7573 186.929 22.904 186.929 21.944C186.929 20.984 186.705 20.1413 186.257 19.416C185.831 18.6693 185.223 18.104 184.433 17.72C183.644 17.3147 182.748 17.112 181.745 17.112C180.743 17.112 179.836 17.3147 179.025 17.72C178.236 18.104 177.617 18.6693 177.169 19.416C176.743 20.1413 176.529 20.984 176.529 21.944C176.529 22.904 176.743 23.7573 177.169 24.504C177.617 25.2293 178.236 25.8053 179.025 26.232C179.836 26.6373 180.743 26.84 181.745 26.84ZM221.096 8.6H225.256V31H221.096V8.6ZM209.512 31H205.352V8.6H209.512V31ZM221.416 21.4H209.16V17.848H221.416V21.4ZM238.554 31.224C236.805 31.224 235.247 30.8507 233.882 30.104C232.517 29.336 231.439 28.2907 230.65 26.968C229.861 25.6453 229.466 24.1413 229.466 22.456C229.466 20.7493 229.861 19.2453 230.65 17.944C231.439 16.6213 232.517 15.5867 233.882 14.84C235.247 14.0933 236.805 13.72 238.554 13.72C240.325 13.72 241.893 14.0933 243.258 14.84C244.645 15.5867 245.722 16.6107 246.49 17.912C247.279 19.2133 247.674 20.728 247.674 22.456C247.674 24.1413 247.279 25.6453 246.49 26.968C245.722 28.2907 244.645 29.336 243.258 30.104C241.893 30.8507 240.325 31.224 238.554 31.224ZM238.554 27.8C239.535 27.8 240.41 27.5867 241.178 27.16C241.946 26.7333 242.543 26.1147 242.97 25.304C243.418 24.4933 243.642 23.544 243.642 22.456C243.642 21.3467 243.418 20.3973 242.97 19.608C242.543 18.7973 241.946 18.1787 241.178 17.752C240.41 17.3253 239.546 17.112 238.586 17.112C237.605 17.112 236.73 17.3253 235.962 17.752C235.215 18.1787 234.618 18.7973 234.17 19.608C233.722 20.3973 233.498 21.3467 233.498 22.456C233.498 23.544 233.722 24.4933 234.17 25.304C234.618 26.1147 235.215 26.7333 235.962 27.16C236.73 27.5867 237.594 27.8 238.554 27.8ZM258.731 31.224C257.28 31.224 256 30.9573 254.891 30.424C253.782 29.8693 252.918 29.0373 252.299 27.928C251.68 26.7973 251.371 25.3787 251.371 23.672V13.912H255.371V23.128C255.371 24.664 255.712 25.816 256.395 26.584C257.099 27.3307 258.091 27.704 259.371 27.704C260.31 27.704 261.12 27.512 261.803 27.128C262.507 26.744 263.051 26.168 263.435 25.4C263.84 24.632 264.043 23.6827 264.043 22.552V13.912H268.043V31H264.235V26.392L264.907 27.8C264.331 28.9093 263.488 29.7627 262.379 30.36C261.27 30.936 260.054 31.224 258.731 31.224ZM273.28 31V13.912H277.088V18.616L276.64 17.24C277.152 16.088 277.952 15.2133 279.04 14.616C280.15 14.0187 281.526 13.72 283.168 13.72V17.528C282.998 17.4853 282.838 17.464 282.688 17.464C282.539 17.4427 282.39 17.432 282.24 17.432C280.726 17.432 279.52 17.88 278.624 18.776C277.728 19.6507 277.28 20.9627 277.28 22.712V31H273.28ZM291.998 31.224C290.568 31.224 289.192 31.0427 287.87 30.68C286.568 30.296 285.534 29.8373 284.766 29.304L286.302 26.264C287.07 26.7547 287.987 27.16 289.054 27.48C290.12 27.8 291.187 27.96 292.254 27.96C293.512 27.96 294.419 27.7893 294.974 27.448C295.55 27.1067 295.838 26.648 295.838 26.072C295.838 25.6027 295.646 25.2507 295.262 25.016C294.878 24.76 294.376 24.568 293.758 24.44C293.139 24.312 292.446 24.1947 291.678 24.088C290.931 23.9813 290.174 23.8427 289.406 23.672C288.659 23.48 287.976 23.2133 287.358 22.872C286.739 22.5093 286.238 22.0293 285.854 21.432C285.47 20.8347 285.278 20.0453 285.278 19.064C285.278 17.976 285.587 17.0373 286.206 16.248C286.824 15.4373 287.688 14.8187 288.798 14.392C289.928 13.944 291.262 13.72 292.798 13.72C293.95 13.72 295.112 13.848 296.286 14.104C297.459 14.36 298.43 14.7227 299.198 15.192L297.662 18.232C296.851 17.7413 296.03 17.4107 295.198 17.24C294.387 17.048 293.576 16.952 292.766 16.952C291.55 16.952 290.643 17.1333 290.046 17.496C289.47 17.8587 289.182 18.3173 289.182 18.872C289.182 19.384 289.374 19.768 289.758 20.024C290.142 20.28 290.643 20.4827 291.262 20.632C291.88 20.7813 292.563 20.9093 293.31 21.016C294.078 21.1013 294.835 21.24 295.582 21.432C296.328 21.624 297.011 21.8907 297.63 22.232C298.27 22.552 298.782 23.0107 299.166 23.608C299.55 24.2053 299.742 24.984 299.742 25.944C299.742 27.0107 299.422 27.9387 298.782 28.728C298.163 29.5173 297.278 30.136 296.126 30.584C294.974 31.0107 293.598 31.224 291.998 31.224Z" fill="#231F1E"/>
<defs>
<clipPath id="clip0_61_805">
<rect width="30" height="30" fill="white" transform="translate(0 4.5)"/>
</clipPath>
</defs>
</svg>
