<svg width="156" height="39" viewBox="0 0 156 39" fill="none" xmlns="http://www.w3.org/2000/svg">
<path d="M21.5625 18.5625C17.4375 18.5625 14.0625 21.9375 14.0625 26.0625C14.0625 30.1875 17.4375 33.5625 21.5625 33.5625C25.6875 33.5625 29.0625 30.1875 29.0625 26.0625C29.0625 21.9375 25.6875 18.5625 21.5625 18.5625ZM25.0313 26.625L22.2188 29.5313C22.125 29.625 22.0312 29.7188 21.9375 29.7188C21.8437 29.8125 21.6562 29.8125 21.5625 29.8125C21.4688 29.8125 21.2813 29.8125 21.1875 29.7188C21.0938 29.625 21 29.625 20.9062 29.5313L18.0937 26.625C17.7187 26.25 17.7187 25.6875 18.0937 25.3125C18.4687 24.9375 19.0313 24.9375 19.4063 25.3125L20.625 26.5312V22.3125C20.625 21.75 21 21.375 21.5625 21.375C22.125 21.375 22.5 21.75 22.5 22.3125V26.5312L23.7187 25.3125C24.0937 24.9375 24.6563 24.9375 25.0313 25.3125C25.4063 25.6875 25.4063 26.25 25.0313 26.625Z" fill="#F47721"/>
<path d="M12.1875 26.0625C12.1875 24.75 12.4688 23.4375 13.0312 22.3125C12.8438 22.3125 12.6562 22.2187 12.5625 22.125L11.0625 20.8125L6.28125 24.9375C6.09375 25.0312 5.8125 25.125 5.625 25.125C5.34375 25.125 5.0625 25.0313 4.875 24.8438C4.5 24.4688 4.59375 23.9062 4.96875 23.5312L9.5625 19.5938L4.96875 15.6562C4.59375 15.2812 4.5 14.7188 4.875 14.3438C5.25 13.9688 5.8125 13.875 6.1875 14.25L13.0312 20.25L19.875 14.25C20.25 13.875 20.8125 13.9688 21.1875 14.3438C21.5625 14.7188 21.4688 15.2812 21.0938 15.6562L19.6875 16.875C20.25 16.7812 20.9062 16.6875 21.5625 16.6875C22.875 16.6875 24.1875 16.9688 25.3125 17.4375V12.9375C25.3125 11.3438 24.0938 10.125 22.5 10.125H3.75C2.15625 10.125 0.9375 11.3438 0.9375 12.9375V26.0625C0.9375 27.6562 2.15625 28.875 3.75 28.875H12.6562C12.375 28.0312 12.1875 27 12.1875 26.0625Z" fill="#F47721"/>
<path d="M57.848 17.912H68.984V21.336H57.848V17.912ZM58.168 27.512H70.808V31H54.008V8.6H70.36V12.088H58.168V27.512ZM73.5725 23.768V20.44H82.3725V23.768H73.5725ZM108.317 13.72C109.682 13.72 110.888 13.9867 111.933 14.52C113 15.0533 113.832 15.8747 114.429 16.984C115.026 18.072 115.325 19.48 115.325 21.208V31H111.325V21.72C111.325 20.2053 110.994 19.0747 110.333 18.328C109.672 17.5813 108.722 17.208 107.485 17.208C106.61 17.208 105.832 17.4 105.149 17.784C104.488 18.168 103.965 18.7333 103.581 19.48C103.218 20.2267 103.037 21.176 103.037 22.328V31H99.037V21.72C99.037 20.2053 98.7063 19.0747 98.045 18.328C97.3837 17.5813 96.4343 17.208 95.197 17.208C94.3223 17.208 93.5437 17.4 92.861 17.784C92.1997 18.168 91.677 18.7333 91.293 19.48C90.9303 20.2267 90.749 21.176 90.749 22.328V31H86.749V13.912H90.557V18.456L89.885 17.112C90.461 16.0027 91.293 15.16 92.381 14.584C93.4903 14.008 94.749 13.72 96.157 13.72C97.757 13.72 99.1437 14.1147 100.317 14.904C101.512 15.6933 102.301 16.888 102.685 18.488L101.117 17.944C101.672 16.664 102.589 15.64 103.869 14.872C105.149 14.104 106.632 13.72 108.317 13.72ZM130.965 31V27.544L130.741 26.808V20.76C130.741 19.5867 130.389 18.68 129.685 18.04C128.981 17.3787 127.914 17.048 126.485 17.048C125.525 17.048 124.575 17.1973 123.637 17.496C122.719 17.7947 121.941 18.2107 121.301 18.744L119.733 15.832C120.65 15.128 121.738 14.6053 122.997 14.264C124.277 13.9013 125.599 13.72 126.965 13.72C129.439 13.72 131.349 14.3173 132.693 15.512C134.058 16.6853 134.741 18.5093 134.741 20.984V31H130.965ZM125.589 31.224C124.309 31.224 123.189 31.0107 122.229 30.584C121.269 30.136 120.522 29.528 119.989 28.76C119.477 27.9707 119.221 27.0853 119.221 26.104C119.221 25.144 119.445 24.28 119.893 23.512C120.362 22.744 121.119 22.136 122.165 21.688C123.21 21.24 124.597 21.016 126.325 21.016H131.285V23.672H126.613C125.247 23.672 124.33 23.896 123.861 24.344C123.391 24.7707 123.157 25.304 123.157 25.944C123.157 26.6693 123.445 27.2453 124.021 27.672C124.597 28.0987 125.397 28.312 126.421 28.312C127.402 28.312 128.277 28.088 129.045 27.64C129.834 27.192 130.399 26.5307 130.741 25.656L131.413 28.056C131.029 29.0587 130.335 29.8373 129.333 30.392C128.351 30.9467 127.103 31.224 125.589 31.224ZM139.874 31V13.912H143.874V31H139.874ZM141.89 11.096C141.143 11.096 140.525 10.8613 140.034 10.392C139.565 9.92267 139.33 9.35733 139.33 8.696C139.33 8.01333 139.565 7.448 140.034 7C140.525 6.53067 141.143 6.296 141.89 6.296C142.637 6.296 143.245 6.52 143.714 6.968C144.205 7.39467 144.45 7.93867 144.45 8.6C144.45 9.304 144.215 9.90133 143.746 10.392C143.277 10.8613 142.658 11.096 141.89 11.096ZM149.124 31V7.256H153.124V31H149.124Z" fill="#231F1E"/>
</svg>
