<svg width="159" height="39" viewBox="0 0 159 39" fill="none" xmlns="http://www.w3.org/2000/svg">
<path d="M24.9998 18.2487H27.4998C27.4998 11.8362 22.6586 7 16.2373 7V9.5C21.3148 9.5 24.9998 13.1787 24.9998 18.2487Z" fill="#F47721"/>
<path d="M16.2504 14.5001C18.8791 14.5001 20.0004 15.6213 20.0004 18.2501H22.5004C22.5004 14.2188 20.2816 12.0001 16.2504 12.0001V14.5001ZM20.5279 21.3038C20.2877 21.0855 19.972 20.9691 19.6476 20.9791C19.3232 20.9891 19.0154 21.1248 18.7891 21.3576L15.7979 24.4338C15.0779 24.2963 13.6304 23.8451 12.1404 22.3588C10.6504 20.8676 10.1991 19.4163 10.0654 18.7013L13.1391 15.7088C13.3721 15.4827 13.508 15.1748 13.5181 14.8503C13.5281 14.5258 13.4115 14.2101 13.1929 13.9701L8.5741 8.8913C8.35541 8.6505 8.05145 8.50443 7.72679 8.48413C7.40214 8.46382 7.08235 8.57088 6.83535 8.78255L4.12285 11.1088C3.90674 11.3257 3.77775 11.6144 3.76035 11.9201C3.7416 12.2326 3.3841 19.6351 9.1241 25.3776C14.1316 30.3838 20.4041 30.7501 22.1316 30.7501C22.3841 30.7501 22.5391 30.7426 22.5804 30.7401C22.886 30.7229 23.1745 30.5934 23.3904 30.3763L25.7154 27.6626C25.9272 27.4157 26.0345 27.096 26.0144 26.7714C25.9943 26.4467 25.8485 26.1427 25.6079 25.9238L20.5279 21.3038Z" fill="#F47721"/>
<path d="M54.008 31V8.6H63.224C65.208 8.6 66.904 8.92 68.312 9.56C69.7413 10.2 70.84 11.1173 71.608 12.312C72.376 13.5067 72.76 14.9253 72.76 16.568C72.76 18.2107 72.376 19.6293 71.608 20.824C70.84 22.0187 69.7413 22.936 68.312 23.576C66.904 24.216 65.208 24.536 63.224 24.536H56.312L58.168 22.584V31H54.008ZM58.168 23.032L56.312 21.016H63.032C64.8667 21.016 66.2427 20.632 67.16 19.864C68.0987 19.0747 68.568 17.976 68.568 16.568C68.568 15.1387 68.0987 14.04 67.16 13.272C66.2427 12.504 64.8667 12.12 63.032 12.12H56.312L58.168 10.072V23.032ZM86.5388 13.72C87.9041 13.72 89.1201 13.9867 90.1868 14.52C91.2748 15.0533 92.1281 15.8747 92.7468 16.984C93.3654 18.072 93.6748 19.48 93.6748 21.208V31H89.6748V21.72C89.6748 20.2053 89.3121 19.0747 88.5868 18.328C87.8828 17.5813 86.8908 17.208 85.6108 17.208C84.6721 17.208 83.8401 17.4 83.1148 17.784C82.3894 18.168 81.8241 18.744 81.4188 19.512C81.0348 20.2587 80.8428 21.208 80.8428 22.36V31H76.8428V7.256H80.8428V18.52L79.9788 17.112C80.5761 16.024 81.4401 15.192 82.5708 14.616C83.7228 14.0187 85.0454 13.72 86.5388 13.72ZM106.46 31.224C104.711 31.224 103.154 30.8507 101.788 30.104C100.423 29.336 99.3456 28.2907 98.5563 26.968C97.7669 25.6453 97.3723 24.1413 97.3723 22.456C97.3723 20.7493 97.7669 19.2453 98.5563 17.944C99.3456 16.6213 100.423 15.5867 101.788 14.84C103.154 14.0933 104.711 13.72 106.46 13.72C108.231 13.72 109.799 14.0933 111.164 14.84C112.551 15.5867 113.628 16.6107 114.396 17.912C115.186 19.2133 115.58 20.728 115.58 22.456C115.58 24.1413 115.186 25.6453 114.396 26.968C113.628 28.2907 112.551 29.336 111.164 30.104C109.799 30.8507 108.231 31.224 106.46 31.224ZM106.46 27.8C107.442 27.8 108.316 27.5867 109.084 27.16C109.852 26.7333 110.45 26.1147 110.876 25.304C111.324 24.4933 111.548 23.544 111.548 22.456C111.548 21.3467 111.324 20.3973 110.876 19.608C110.45 18.7973 109.852 18.1787 109.084 17.752C108.316 17.3253 107.452 17.112 106.492 17.112C105.511 17.112 104.636 17.3253 103.868 17.752C103.122 18.1787 102.524 18.7973 102.076 19.608C101.628 20.3973 101.404 21.3467 101.404 22.456C101.404 23.544 101.628 24.4933 102.076 25.304C102.524 26.1147 103.122 26.7333 103.868 27.16C104.636 27.5867 105.5 27.8 106.46 27.8ZM129.101 13.72C130.467 13.72 131.683 13.9867 132.749 14.52C133.837 15.0533 134.691 15.8747 135.309 16.984C135.928 18.072 136.237 19.48 136.237 21.208V31H132.237V21.72C132.237 20.2053 131.875 19.0747 131.149 18.328C130.445 17.5813 129.453 17.208 128.173 17.208C127.235 17.208 126.403 17.4 125.677 17.784C124.952 18.168 124.387 18.744 123.981 19.512C123.597 20.2587 123.405 21.208 123.405 22.36V31H119.405V13.912H123.213V18.52L122.541 17.112C123.139 16.024 124.003 15.192 125.133 14.616C126.285 14.0187 127.608 13.72 129.101 13.72ZM149.375 31.224C147.476 31.224 145.812 30.8507 144.383 30.104C142.975 29.336 141.876 28.2907 141.087 26.968C140.319 25.6453 139.935 24.1413 139.935 22.456C139.935 20.7493 140.308 19.2453 141.055 17.944C141.823 16.6213 142.868 15.5867 144.191 14.84C145.535 14.0933 147.06 13.72 148.767 13.72C150.431 13.72 151.913 14.0827 153.215 14.808C154.516 15.5333 155.54 16.5573 156.287 17.88C157.033 19.2027 157.407 20.76 157.407 22.552C157.407 22.7227 157.396 22.9147 157.375 23.128C157.375 23.3413 157.364 23.544 157.343 23.736H143.103V21.08H155.231L153.663 21.912C153.684 20.9307 153.481 20.0667 153.055 19.32C152.628 18.5733 152.041 17.9867 151.295 17.56C150.569 17.1333 149.727 16.92 148.767 16.92C147.785 16.92 146.921 17.1333 146.175 17.56C145.449 17.9867 144.873 18.584 144.447 19.352C144.041 20.0987 143.839 20.984 143.839 22.008V22.648C143.839 23.672 144.073 24.5787 144.543 25.368C145.012 26.1573 145.673 26.7653 146.527 27.192C147.38 27.6187 148.361 27.832 149.471 27.832C150.431 27.832 151.295 27.6827 152.063 27.384C152.831 27.0853 153.513 26.616 154.111 25.976L156.255 28.44C155.487 29.336 154.516 30.0293 153.343 30.52C152.191 30.9893 150.868 31.224 149.375 31.224Z" fill="#231F1E"/>
</svg>
