<svg width="240" height="39" viewBox="0 0 240 39" fill="none" xmlns="http://www.w3.org/2000/svg">
<path d="M15 5.125C8.875 5.125 3.75 10.25 3.75 16.5C3.75 24.625 12.25 33.875 15 33.875C17.75 33.875 26.25 24.625 26.25 16.5C26.25 10.25 21.125 5.125 15 5.125ZM15 23.625C11.125 23.625 8 20.375 8 16.5C8 15 8.5 13.5 9.375 12.375C9.5 12.125 9.75 12 10 12.125C10.25 12.25 10.375 12.375 10.375 12.625C10.5 13.75 11.375 14.5 12.375 14.5C13.5 14.5 14.375 13.625 14.375 12.5C14.375 11.75 14 11 13.25 10.625C13 10.5 12.875 10.25 12.875 10C12.875 9.75 13.125 9.5 13.375 9.5C13.875 9.5 14.5 9.375 15 9.375C18.875 9.375 22 12.625 22 16.5C22 20.5 18.875 23.625 15 23.625Z" fill="#F47721"/>
<path d="M54.008 31V8.6H57.432L67.224 24.952H65.432L75.064 8.6H78.488L78.52 31H74.584L74.552 14.776H75.384L67.192 28.44H65.336L57.016 14.776H57.976V31H54.008ZM94.7145 31V27.544L94.4905 26.808V20.76C94.4905 19.5867 94.1385 18.68 93.4345 18.04C92.7305 17.3787 91.6638 17.048 90.2345 17.048C89.2745 17.048 88.3252 17.1973 87.3865 17.496C86.4692 17.7947 85.6905 18.2107 85.0505 18.744L83.4825 15.832C84.3998 15.128 85.4878 14.6053 86.7465 14.264C88.0265 13.9013 89.3492 13.72 90.7145 13.72C93.1892 13.72 95.0985 14.3173 96.4425 15.512C97.8078 16.6853 98.4905 18.5093 98.4905 20.984V31H94.7145ZM89.3385 31.224C88.0585 31.224 86.9385 31.0107 85.9785 30.584C85.0185 30.136 84.2718 29.528 83.7385 28.76C83.2265 27.9707 82.9705 27.0853 82.9705 26.104C82.9705 25.144 83.1945 24.28 83.6425 23.512C84.1118 22.744 84.8692 22.136 85.9145 21.688C86.9598 21.24 88.3465 21.016 90.0745 21.016H95.0345V23.672H90.3625C88.9972 23.672 88.0798 23.896 87.6105 24.344C87.1412 24.7707 86.9065 25.304 86.9065 25.944C86.9065 26.6693 87.1945 27.2453 87.7705 27.672C88.3465 28.0987 89.1465 28.312 90.1705 28.312C91.1518 28.312 92.0265 28.088 92.7945 27.64C93.5838 27.192 94.1492 26.5307 94.4905 25.656L95.1625 28.056C94.7785 29.0587 94.0852 29.8373 93.0825 30.392C92.1012 30.9467 90.8532 31.224 89.3385 31.224ZM103.624 31V13.912H107.624V31H103.624ZM105.64 11.096C104.893 11.096 104.275 10.8613 103.784 10.392C103.315 9.92267 103.08 9.35733 103.08 8.696C103.08 8.01333 103.315 7.448 103.784 7C104.275 6.53067 104.893 6.296 105.64 6.296C106.387 6.296 106.995 6.52 107.464 6.968C107.955 7.39467 108.2 7.93867 108.2 8.6C108.2 9.304 107.965 9.90133 107.496 10.392C107.027 10.8613 106.408 11.096 105.64 11.096ZM122.57 13.72C123.935 13.72 125.151 13.9867 126.218 14.52C127.306 15.0533 128.159 15.8747 128.778 16.984C129.397 18.072 129.706 19.48 129.706 21.208V31H125.706V21.72C125.706 20.2053 125.343 19.0747 124.618 18.328C123.914 17.5813 122.922 17.208 121.642 17.208C120.703 17.208 119.871 17.4 119.146 17.784C118.421 18.168 117.855 18.744 117.45 19.512C117.066 20.2587 116.874 21.208 116.874 22.36V31H112.874V13.912H116.682V18.52L116.01 17.112C116.607 16.024 117.471 15.192 118.602 14.616C119.754 14.0187 121.077 13.72 122.57 13.72ZM154.504 31.32C152.755 31.32 151.144 31.032 149.672 30.456C148.2 29.88 146.92 29.08 145.832 28.056C144.744 27.0107 143.901 25.7947 143.304 24.408C142.707 23 142.408 21.464 142.408 19.8C142.408 18.136 142.707 16.6107 143.304 15.224C143.901 13.816 144.744 12.6 145.832 11.576C146.92 10.5307 148.2 9.72 149.672 9.144C151.144 8.568 152.744 8.28 154.472 8.28C156.221 8.28 157.821 8.568 159.272 9.144C160.744 9.72 162.024 10.5307 163.112 11.576C164.2 12.6 165.043 13.816 165.64 15.224C166.237 16.6107 166.536 18.136 166.536 19.8C166.536 21.464 166.237 23 165.64 24.408C165.043 25.816 164.2 27.032 163.112 28.056C162.024 29.08 160.744 29.88 159.272 30.456C157.821 31.032 156.232 31.32 154.504 31.32ZM154.472 27.672C155.603 27.672 156.648 27.48 157.608 27.096C158.568 26.712 159.4 26.168 160.104 25.464C160.808 24.7387 161.352 23.9067 161.736 22.968C162.141 22.008 162.344 20.952 162.344 19.8C162.344 18.648 162.141 17.6027 161.736 16.664C161.352 15.704 160.808 14.872 160.104 14.168C159.4 13.4427 158.568 12.888 157.608 12.504C156.648 12.12 155.603 11.928 154.472 11.928C153.341 11.928 152.296 12.12 151.336 12.504C150.397 12.888 149.565 13.4427 148.84 14.168C148.136 14.872 147.581 15.704 147.176 16.664C146.792 17.6027 146.6 18.648 146.6 19.8C146.6 20.9307 146.792 21.976 147.176 22.936C147.581 23.896 148.136 24.7387 148.84 25.464C149.544 26.168 150.376 26.712 151.336 27.096C152.296 27.48 153.341 27.672 154.472 27.672ZM171.106 31V12.952C171.106 11.16 171.628 9.73067 172.674 8.664C173.74 7.576 175.255 7.032 177.218 7.032C177.922 7.032 178.583 7.10667 179.202 7.256C179.842 7.40533 180.375 7.64 180.802 7.96L179.714 10.968C179.415 10.7333 179.074 10.5627 178.69 10.456C178.306 10.328 177.911 10.264 177.506 10.264C176.674 10.264 176.044 10.4987 175.618 10.968C175.191 11.416 174.978 12.0987 174.978 13.016V14.936L175.106 16.728V31H171.106ZM168.29 17.24V14.04H179.682V17.24H168.29ZM182.918 31V12.952C182.918 11.16 183.441 9.73067 184.486 8.664C185.553 7.576 187.067 7.032 189.03 7.032C189.734 7.032 190.395 7.10667 191.014 7.256C191.654 7.40533 192.187 7.64 192.614 7.96L191.526 10.968C191.227 10.7333 190.886 10.5627 190.502 10.456C190.118 10.328 189.723 10.264 189.318 10.264C188.486 10.264 187.857 10.4987 187.43 10.968C187.003 11.416 186.79 12.0987 186.79 13.016V14.936L186.918 16.728V31H182.918ZM180.102 17.24V14.04H191.494V17.24H180.102ZM194.31 31V13.912H198.31V31H194.31ZM196.326 11.096C195.579 11.096 194.961 10.8613 194.47 10.392C194.001 9.92267 193.766 9.35733 193.766 8.696C193.766 8.01333 194.001 7.448 194.47 7C194.961 6.53067 195.579 6.296 196.326 6.296C197.073 6.296 197.681 6.52 198.15 6.968C198.641 7.39467 198.886 7.93867 198.886 8.6C198.886 9.304 198.651 9.90133 198.182 10.392C197.713 10.8613 197.094 11.096 196.326 11.096ZM211.402 31.224C209.61 31.224 208.01 30.8507 206.602 30.104C205.215 29.336 204.127 28.2907 203.338 26.968C202.548 25.6453 202.154 24.1413 202.154 22.456C202.154 20.7493 202.548 19.2453 203.338 17.944C204.127 16.6213 205.215 15.5867 206.602 14.84C208.01 14.0933 209.61 13.72 211.402 13.72C213.066 13.72 214.527 14.0613 215.786 14.744C217.066 15.4053 218.036 16.3867 218.698 17.688L215.626 19.48C215.114 18.6693 214.484 18.072 213.738 17.688C213.012 17.304 212.223 17.112 211.37 17.112C210.388 17.112 209.503 17.3253 208.714 17.752C207.924 18.1787 207.306 18.7973 206.858 19.608C206.41 20.3973 206.186 21.3467 206.186 22.456C206.186 23.5653 206.41 24.5253 206.858 25.336C207.306 26.1253 207.924 26.7333 208.714 27.16C209.503 27.5867 210.388 27.8 211.37 27.8C212.223 27.8 213.012 27.608 213.738 27.224C214.484 26.84 215.114 26.2427 215.626 25.432L218.698 27.224C218.036 28.504 217.066 29.496 215.786 30.2C214.527 30.8827 213.066 31.224 211.402 31.224ZM229.937 31.224C228.039 31.224 226.375 30.8507 224.945 30.104C223.537 29.336 222.439 28.2907 221.649 26.968C220.881 25.6453 220.497 24.1413 220.497 22.456C220.497 20.7493 220.871 19.2453 221.617 17.944C222.385 16.6213 223.431 15.5867 224.753 14.84C226.097 14.0933 227.623 13.72 229.329 13.72C230.993 13.72 232.476 14.0827 233.777 14.808C235.079 15.5333 236.103 16.5573 236.849 17.88C237.596 19.2027 237.969 20.76 237.969 22.552C237.969 22.7227 237.959 22.9147 237.937 23.128C237.937 23.3413 237.927 23.544 237.905 23.736H223.665V21.08H235.793L234.225 21.912C234.247 20.9307 234.044 20.0667 233.617 19.32C233.191 18.5733 232.604 17.9867 231.857 17.56C231.132 17.1333 230.289 16.92 229.329 16.92C228.348 16.92 227.484 17.1333 226.737 17.56C226.012 17.9867 225.436 18.584 225.009 19.352C224.604 20.0987 224.401 20.984 224.401 22.008V22.648C224.401 23.672 224.636 24.5787 225.105 25.368C225.575 26.1573 226.236 26.7653 227.089 27.192C227.943 27.6187 228.924 27.832 230.033 27.832C230.993 27.832 231.857 27.6827 232.625 27.384C233.393 27.0853 234.076 26.616 234.673 25.976L236.817 28.44C236.049 29.336 235.079 30.0293 233.905 30.52C232.753 30.9893 231.431 31.224 229.937 31.224Z" fill="#231F1E"/>
</svg>
