<svg width="12" height="8" viewBox="0 0 12 8" fill="none" xmlns="http://www.w3.org/2000/svg">
<path d="M9.87935 1.29L5.99935 5.17L2.11935 1.29C2.02677 1.19742 1.91686 1.12398 1.7959 1.07387C1.67493 1.02377 1.54529 0.997978 1.41435 0.997978C1.28342 0.997978 1.15377 1.02377 1.03281 1.07387C0.911846 1.12398 0.801934 1.19742 0.709352 1.29C0.616771 1.38258 0.543332 1.49249 0.493227 1.61346C0.443122 1.73442 0.417334 1.86407 0.417334 1.995C0.417334 2.12593 0.443122 2.25558 0.493227 2.37654C0.543332 2.49751 0.616771 2.60742 0.709352 2.7L5.29935 7.29C5.39187 7.3827 5.50176 7.45625 5.62273 7.50643C5.7437 7.55661 5.87338 7.58244 6.00435 7.58244C6.13532 7.58244 6.265 7.55661 6.38598 7.50643C6.50695 7.45625 6.61684 7.3827 6.70935 7.29L11.2994 2.7C11.3921 2.60749 11.4656 2.4976 11.5158 2.37662C11.566 2.25565 11.5918 2.12597 11.5918 1.995C11.5918 1.86403 11.566 1.73435 11.5158 1.61337C11.4656 1.4924 11.3921 1.38251 11.2994 1.29C10.9094 0.909999 10.2694 0.899999 9.87935 1.29Z" fill="#231F1E"/>
</svg>
