<svg width="22" height="23" viewBox="0 0 22 23" fill="none" xmlns="http://www.w3.org/2000/svg">
<path d="M11 22.7883C17.0751 22.7883 22 17.7976 22 11.6413C22 5.48505 17.0751 0.494385 11 0.494385C4.92487 0.494385 0 5.48505 0 11.6413C0 17.7976 4.92487 22.7883 11 22.7883Z" fill="#3B5998"/>
<path d="M15.125 22.7883V14.4281H17.875L18.5625 10.9446H15.125V9.55126C15.125 8.15789 15.8139 7.46121 17.1875 7.46121H18.5625V3.97778C17.875 3.97778 17.0225 3.97778 15.8125 3.97778C13.2859 3.97778 11.6875 5.98493 11.6875 8.85458V10.9446H8.9375V14.4281H11.6875V22.7883H15.125Z" fill="white"/>
</svg>
