<svg width="286" height="76" viewBox="0 0 286 76" fill="none" xmlns="http://www.w3.org/2000/svg">
<path d="M15.0343 52.25V24.35H21.6683V52.25H15.0343ZM4.06027 41.4V35.2H32.6423V41.4H4.06027ZM56.7506 60.62C53.1546 60.62 50.0339 60.0827 47.3886 59.008C44.7433 57.9333 42.6973 56.4247 41.2506 54.482C39.8039 52.498 39.0806 50.1833 39.0806 47.538C39.0806 44.8927 39.7833 42.6607 41.1886 40.842C42.5939 39.0233 44.6193 37.6387 47.2646 36.688C49.9099 35.7373 53.0719 35.262 56.7506 35.262C60.4293 35.262 63.5913 35.7373 66.2366 36.688C68.9233 37.6387 70.9693 39.044 72.3746 40.904C73.8213 42.7227 74.5446 44.934 74.5446 47.538C74.5446 50.1833 73.8006 52.498 72.3126 54.482C70.8659 56.4247 68.7993 57.9333 66.1126 59.008C63.4673 60.0827 60.3466 60.62 56.7506 60.62ZM56.7506 54.296C59.7266 54.296 62.0826 53.676 63.8186 52.436C65.5546 51.196 66.4226 49.4807 66.4226 47.29C66.4226 45.1407 65.5546 43.446 63.8186 42.206C62.0826 40.966 59.7266 40.346 56.7506 40.346C53.7746 40.346 51.4393 40.966 49.7446 42.206C48.0499 43.446 47.2026 45.1407 47.2026 47.29C47.2026 49.4807 48.0499 51.196 49.7446 52.436C51.4393 53.676 53.7746 54.296 56.7506 54.296ZM56.7506 39.478C53.4026 39.478 50.5299 39.044 48.1326 38.176C45.7353 37.2667 43.8753 35.9647 42.5526 34.27C41.2713 32.534 40.6306 30.4673 40.6306 28.07C40.6306 25.59 41.2919 23.4613 42.6146 21.684C43.9786 19.8653 45.8799 18.46 48.3186 17.468C50.7573 16.476 53.5679 15.98 56.7506 15.98C59.9746 15.98 62.8059 16.476 65.2446 17.468C67.6833 18.46 69.5846 19.8653 70.9486 21.684C72.3126 23.4613 72.9946 25.59 72.9946 28.07C72.9946 30.4673 72.3333 32.534 71.0106 34.27C69.7293 35.9647 67.8693 37.2667 65.4306 38.176C62.9919 39.044 60.0986 39.478 56.7506 39.478ZM56.7506 34.518C59.3133 34.518 61.3386 33.9807 62.8266 32.906C64.3146 31.79 65.0586 30.302 65.0586 28.442C65.0586 26.4993 64.2939 24.9907 62.7646 23.916C61.2353 22.8413 59.2306 22.304 56.7506 22.304C54.2706 22.304 52.2866 22.8413 50.7986 23.916C49.3106 24.9907 48.5666 26.4993 48.5666 28.442C48.5666 30.302 49.2899 31.79 50.7366 32.906C52.2246 33.9807 54.2293 34.518 56.7506 34.518ZM94.1579 60.62C91.0992 60.62 88.1026 60.186 85.1679 59.318C82.2746 58.4087 79.8359 57.1687 77.8519 55.598L81.2619 49.336C82.8326 50.6173 84.7339 51.6507 86.9659 52.436C89.2392 53.2213 91.5952 53.614 94.0339 53.614C96.8859 53.614 99.1179 53.0147 100.73 51.816C102.383 50.6173 103.21 49.0053 103.21 46.98C103.21 45.616 102.859 44.4173 102.156 43.384C101.495 42.3507 100.296 41.5653 98.5599 41.028C96.8652 40.4907 94.5299 40.222 91.5539 40.222H81.0759L83.3079 16.6H108.79V23.358H86.2839L90.4999 19.514L88.8259 37.184L84.6099 33.402H93.3519C97.6506 33.402 101.102 33.9807 103.706 35.138C106.351 36.254 108.273 37.8247 109.472 39.85C110.712 41.834 111.332 44.1073 111.332 46.67C111.332 49.1913 110.712 51.506 109.472 53.614C108.232 55.722 106.331 57.4167 103.768 58.698C101.247 59.9793 98.0432 60.62 94.1579 60.62ZM134.085 60.62C130.654 60.62 127.554 59.752 124.785 58.016C122.057 56.28 119.908 53.7587 118.337 50.452C116.766 47.104 115.981 43.0533 115.981 38.3C115.981 33.5467 116.766 29.5167 118.337 26.21C119.908 22.862 122.057 20.32 124.785 18.584C127.554 16.848 130.654 15.98 134.085 15.98C137.557 15.98 140.657 16.848 143.385 18.584C146.113 20.32 148.262 22.862 149.833 26.21C151.445 29.5167 152.251 33.5467 152.251 38.3C152.251 43.0533 151.445 47.104 149.833 50.452C148.262 53.7587 146.113 56.28 143.385 58.016C140.657 59.752 137.557 60.62 134.085 60.62ZM134.085 53.614C136.11 53.614 137.867 53.0767 139.355 52.002C140.843 50.886 142 49.1913 142.827 46.918C143.695 44.6447 144.129 41.772 144.129 38.3C144.129 34.7867 143.695 31.914 142.827 29.682C142 27.4087 140.843 25.7347 139.355 24.66C137.867 23.544 136.11 22.986 134.085 22.986C132.142 22.986 130.406 23.544 128.877 24.66C127.389 25.7347 126.211 27.4087 125.343 29.682C124.516 31.914 124.103 34.7867 124.103 38.3C124.103 41.772 124.516 44.6447 125.343 46.918C126.211 49.1913 127.389 50.886 128.877 52.002C130.406 53.0767 132.142 53.614 134.085 53.614Z" fill="white"/>
<path d="M181.598 30.68C180.614 30.68 179.672 30.542 178.772 30.266C177.872 29.978 177.158 29.612 176.63 29.168L177.44 27.35C177.944 27.746 178.568 28.076 179.312 28.34C180.056 28.604 180.818 28.736 181.598 28.736C182.258 28.736 182.792 28.664 183.2 28.52C183.608 28.376 183.908 28.184 184.1 27.944C184.292 27.692 184.388 27.41 184.388 27.098C184.388 26.714 184.25 26.408 183.974 26.18C183.698 25.94 183.338 25.754 182.894 25.622C182.462 25.478 181.976 25.346 181.436 25.226C180.908 25.106 180.374 24.968 179.834 24.812C179.306 24.644 178.82 24.434 178.376 24.182C177.944 23.918 177.59 23.57 177.314 23.138C177.038 22.706 176.9 22.154 176.9 21.482C176.9 20.798 177.08 20.174 177.44 19.61C177.812 19.034 178.37 18.578 179.114 18.242C179.87 17.894 180.824 17.72 181.976 17.72C182.732 17.72 183.482 17.816 184.226 18.008C184.97 18.2 185.618 18.476 186.17 18.836L185.432 20.654C184.868 20.318 184.286 20.072 183.686 19.916C183.086 19.748 182.51 19.664 181.958 19.664C181.31 19.664 180.782 19.742 180.374 19.898C179.978 20.054 179.684 20.258 179.492 20.51C179.312 20.762 179.222 21.05 179.222 21.374C179.222 21.758 179.354 22.07 179.618 22.31C179.894 22.538 180.248 22.718 180.68 22.85C181.124 22.982 181.616 23.114 182.156 23.246C182.696 23.366 183.23 23.504 183.758 23.66C184.298 23.816 184.784 24.02 185.216 24.272C185.66 24.524 186.014 24.866 186.278 25.298C186.554 25.73 186.692 26.276 186.692 26.936C186.692 27.608 186.506 28.232 186.134 28.808C185.774 29.372 185.216 29.828 184.46 30.176C183.704 30.512 182.75 30.68 181.598 30.68ZM194.718 30.5V28.556L194.592 28.142V24.74C194.592 24.08 194.394 23.57 193.998 23.21C193.602 22.838 193.002 22.652 192.198 22.652C191.658 22.652 191.124 22.736 190.596 22.904C190.08 23.072 189.642 23.306 189.282 23.606L188.4 21.968C188.916 21.572 189.528 21.278 190.236 21.086C190.956 20.882 191.7 20.78 192.468 20.78C193.86 20.78 194.934 21.116 195.69 21.788C196.458 22.448 196.842 23.474 196.842 24.866V30.5H194.718ZM191.694 30.626C190.974 30.626 190.344 30.506 189.804 30.266C189.264 30.014 188.844 29.672 188.544 29.24C188.256 28.796 188.112 28.298 188.112 27.746C188.112 27.206 188.238 26.72 188.49 26.288C188.754 25.856 189.18 25.514 189.768 25.262C190.356 25.01 191.136 24.884 192.108 24.884H194.898V26.378H192.27C191.502 26.378 190.986 26.504 190.722 26.756C190.458 26.996 190.326 27.296 190.326 27.656C190.326 28.064 190.488 28.388 190.812 28.628C191.136 28.868 191.586 28.988 192.162 28.988C192.714 28.988 193.206 28.862 193.638 28.61C194.082 28.358 194.4 27.986 194.592 27.494L194.97 28.844C194.754 29.408 194.364 29.846 193.8 30.158C193.248 30.47 192.546 30.626 191.694 30.626ZM203.348 30.626C202.292 30.626 201.476 30.356 200.9 29.816C200.324 29.264 200.036 28.454 200.036 27.386V18.764H202.286V27.332C202.286 27.788 202.4 28.142 202.628 28.394C202.868 28.646 203.198 28.772 203.618 28.772C204.122 28.772 204.542 28.64 204.878 28.376L205.508 29.978C205.244 30.194 204.92 30.356 204.536 30.464C204.152 30.572 203.756 30.626 203.348 30.626ZM198.452 22.76V20.96H204.86V22.76H198.452ZM207.359 30.5V20.888H209.609V30.5H207.359ZM208.493 19.304C208.073 19.304 207.725 19.172 207.449 18.908C207.185 18.644 207.053 18.326 207.053 17.954C207.053 17.57 207.185 17.252 207.449 17C207.725 16.736 208.073 16.604 208.493 16.604C208.913 16.604 209.255 16.73 209.519 16.982C209.795 17.222 209.933 17.528 209.933 17.9C209.933 18.296 209.801 18.632 209.537 18.908C209.273 19.172 208.925 19.304 208.493 19.304ZM215.532 30.626C214.728 30.626 213.954 30.524 213.21 30.32C212.478 30.104 211.896 29.846 211.464 29.546L212.328 27.836C212.76 28.112 213.276 28.34 213.876 28.52C214.476 28.7 215.076 28.79 215.676 28.79C216.384 28.79 216.894 28.694 217.206 28.502C217.53 28.31 217.692 28.052 217.692 27.728C217.692 27.464 217.584 27.266 217.368 27.134C217.152 26.99 216.87 26.882 216.522 26.81C216.174 26.738 215.784 26.672 215.352 26.612C214.932 26.552 214.506 26.474 214.074 26.378C213.654 26.27 213.27 26.12 212.922 25.928C212.574 25.724 212.292 25.454 212.076 25.118C211.86 24.782 211.752 24.338 211.752 23.786C211.752 23.174 211.926 22.646 212.274 22.202C212.622 21.746 213.108 21.398 213.732 21.158C214.368 20.906 215.118 20.78 215.982 20.78C216.63 20.78 217.284 20.852 217.944 20.996C218.604 21.14 219.15 21.344 219.582 21.608L218.718 23.318C218.262 23.042 217.8 22.856 217.332 22.76C216.876 22.652 216.42 22.598 215.964 22.598C215.28 22.598 214.77 22.7 214.434 22.904C214.11 23.108 213.948 23.366 213.948 23.678C213.948 23.966 214.056 24.182 214.272 24.326C214.488 24.47 214.77 24.584 215.118 24.668C215.466 24.752 215.85 24.824 216.27 24.884C216.702 24.932 217.128 25.01 217.548 25.118C217.968 25.226 218.352 25.376 218.7 25.568C219.06 25.748 219.348 26.006 219.564 26.342C219.78 26.678 219.888 27.116 219.888 27.656C219.888 28.256 219.708 28.778 219.348 29.222C219 29.666 218.502 30.014 217.854 30.266C217.206 30.506 216.432 30.626 215.532 30.626ZM222.132 30.5V20.348C222.132 19.34 222.426 18.536 223.014 17.936C223.614 17.324 224.466 17.018 225.57 17.018C225.966 17.018 226.338 17.06 226.686 17.144C227.046 17.228 227.346 17.36 227.586 17.54L226.974 19.232C226.806 19.1 226.614 19.004 226.398 18.944C226.182 18.872 225.96 18.836 225.732 18.836C225.264 18.836 224.91 18.968 224.67 19.232C224.43 19.484 224.31 19.868 224.31 20.384V21.464L224.382 22.472V30.5H222.132ZM220.548 22.76V20.96H226.956V22.76H220.548ZM234.216 30.5V28.556L234.09 28.142V24.74C234.09 24.08 233.892 23.57 233.496 23.21C233.1 22.838 232.5 22.652 231.696 22.652C231.156 22.652 230.622 22.736 230.094 22.904C229.578 23.072 229.14 23.306 228.78 23.606L227.898 21.968C228.414 21.572 229.026 21.278 229.734 21.086C230.454 20.882 231.198 20.78 231.966 20.78C233.358 20.78 234.432 21.116 235.188 21.788C235.956 22.448 236.34 23.474 236.34 24.866V30.5H234.216ZM231.192 30.626C230.472 30.626 229.842 30.506 229.302 30.266C228.762 30.014 228.342 29.672 228.042 29.24C227.754 28.796 227.61 28.298 227.61 27.746C227.61 27.206 227.736 26.72 227.988 26.288C228.252 25.856 228.678 25.514 229.266 25.262C229.854 25.01 230.634 24.884 231.606 24.884H234.396V26.378H231.768C231 26.378 230.484 26.504 230.22 26.756C229.956 26.996 229.824 27.296 229.824 27.656C229.824 28.064 229.986 28.388 230.31 28.628C230.634 28.868 231.084 28.988 231.66 28.988C232.212 28.988 232.704 28.862 233.136 28.61C233.58 28.358 233.898 27.986 234.09 27.494L234.468 28.844C234.252 29.408 233.862 29.846 233.298 30.158C232.746 30.47 232.044 30.626 231.192 30.626ZM243.656 30.626C242.648 30.626 241.748 30.416 240.956 29.996C240.176 29.564 239.564 28.976 239.12 28.232C238.676 27.488 238.454 26.642 238.454 25.694C238.454 24.734 238.676 23.888 239.12 23.156C239.564 22.412 240.176 21.83 240.956 21.41C241.748 20.99 242.648 20.78 243.656 20.78C244.592 20.78 245.414 20.972 246.122 21.356C246.842 21.728 247.388 22.28 247.76 23.012L246.032 24.02C245.744 23.564 245.39 23.228 244.97 23.012C244.562 22.796 244.118 22.688 243.638 22.688C243.086 22.688 242.588 22.808 242.144 23.048C241.7 23.288 241.352 23.636 241.1 24.092C240.848 24.536 240.722 25.07 240.722 25.694C240.722 26.318 240.848 26.858 241.1 27.314C241.352 27.758 241.7 28.1 242.144 28.34C242.588 28.58 243.086 28.7 243.638 28.7C244.118 28.7 244.562 28.592 244.97 28.376C245.39 28.16 245.744 27.824 246.032 27.368L247.76 28.376C247.388 29.096 246.842 29.654 246.122 30.05C245.414 30.434 244.592 30.626 243.656 30.626ZM253.446 30.626C252.39 30.626 251.574 30.356 250.998 29.816C250.422 29.264 250.134 28.454 250.134 27.386V18.764H252.384V27.332C252.384 27.788 252.498 28.142 252.726 28.394C252.966 28.646 253.296 28.772 253.716 28.772C254.22 28.772 254.64 28.64 254.976 28.376L255.606 29.978C255.342 30.194 255.018 30.356 254.634 30.464C254.25 30.572 253.854 30.626 253.446 30.626ZM248.55 22.76V20.96H254.958V22.76H248.55ZM257.456 30.5V20.888H259.706V30.5H257.456ZM258.59 19.304C258.17 19.304 257.822 19.172 257.546 18.908C257.282 18.644 257.15 18.326 257.15 17.954C257.15 17.57 257.282 17.252 257.546 17C257.822 16.736 258.17 16.604 258.59 16.604C259.01 16.604 259.352 16.73 259.616 16.982C259.892 17.222 260.03 17.528 260.03 17.9C260.03 18.296 259.898 18.632 259.634 18.908C259.37 19.172 259.022 19.304 258.59 19.304ZM266.98 30.626C265.996 30.626 265.12 30.416 264.352 29.996C263.584 29.564 262.978 28.976 262.534 28.232C262.09 27.488 261.868 26.642 261.868 25.694C261.868 24.734 262.09 23.888 262.534 23.156C262.978 22.412 263.584 21.83 264.352 21.41C265.12 20.99 265.996 20.78 266.98 20.78C267.976 20.78 268.858 20.99 269.626 21.41C270.406 21.83 271.012 22.406 271.444 23.138C271.888 23.87 272.11 24.722 272.11 25.694C272.11 26.642 271.888 27.488 271.444 28.232C271.012 28.976 270.406 29.564 269.626 29.996C268.858 30.416 267.976 30.626 266.98 30.626ZM266.98 28.7C267.532 28.7 268.024 28.58 268.456 28.34C268.888 28.1 269.224 27.752 269.464 27.296C269.716 26.84 269.842 26.306 269.842 25.694C269.842 25.07 269.716 24.536 269.464 24.092C269.224 23.636 268.888 23.288 268.456 23.048C268.024 22.808 267.538 22.688 266.998 22.688C266.446 22.688 265.954 22.808 265.522 23.048C265.102 23.288 264.766 23.636 264.514 24.092C264.262 24.536 264.136 25.07 264.136 25.694C264.136 26.306 264.262 26.84 264.514 27.296C264.766 27.752 265.102 28.1 265.522 28.34C265.954 28.58 266.44 28.7 266.98 28.7ZM279.715 20.78C280.483 20.78 281.167 20.93 281.767 21.23C282.379 21.53 282.859 21.992 283.207 22.616C283.555 23.228 283.729 24.02 283.729 24.992V30.5H281.479V25.28C281.479 24.428 281.275 23.792 280.867 23.372C280.471 22.952 279.913 22.742 279.193 22.742C278.665 22.742 278.197 22.85 277.789 23.066C277.381 23.282 277.063 23.606 276.835 24.038C276.619 24.458 276.511 24.992 276.511 25.64V30.5H274.261V20.888H276.403V23.48L276.025 22.688C276.361 22.076 276.847 21.608 277.483 21.284C278.131 20.948 278.875 20.78 279.715 20.78Z" fill="white"/>
<path d="M183.524 57.68C182.564 57.68 181.67 57.524 180.842 57.212C180.026 56.888 179.312 56.438 178.7 55.862C178.1 55.274 177.632 54.584 177.296 53.792C176.96 53 176.792 52.136 176.792 51.2C176.792 50.264 176.96 49.4 177.296 48.608C177.632 47.816 178.106 47.132 178.718 46.556C179.33 45.968 180.044 45.518 180.86 45.206C181.676 44.882 182.57 44.72 183.542 44.72C184.574 44.72 185.516 44.9 186.368 45.26C187.22 45.608 187.94 46.13 188.528 46.826L187.016 48.248C186.56 47.756 186.05 47.39 185.486 47.15C184.922 46.898 184.31 46.772 183.65 46.772C182.99 46.772 182.384 46.88 181.832 47.096C181.292 47.312 180.818 47.618 180.41 48.014C180.014 48.41 179.702 48.878 179.474 49.418C179.258 49.958 179.15 50.552 179.15 51.2C179.15 51.848 179.258 52.442 179.474 52.982C179.702 53.522 180.014 53.99 180.41 54.386C180.818 54.782 181.292 55.088 181.832 55.304C182.384 55.52 182.99 55.628 183.65 55.628C184.31 55.628 184.922 55.508 185.486 55.268C186.05 55.016 186.56 54.638 187.016 54.134L188.528 55.574C187.94 56.258 187.22 56.78 186.368 57.14C185.516 57.5 184.568 57.68 183.524 57.68ZM190.554 57.5V44.144H192.804V57.5H190.554ZM195.757 57.5V47.888H198.007V57.5H195.757ZM196.891 46.304C196.471 46.304 196.123 46.172 195.847 45.908C195.583 45.644 195.451 45.326 195.451 44.954C195.451 44.57 195.583 44.252 195.847 44C196.123 43.736 196.471 43.604 196.891 43.604C197.311 43.604 197.653 43.73 197.917 43.982C198.193 44.222 198.331 44.528 198.331 44.9C198.331 45.296 198.199 45.632 197.935 45.908C197.671 46.172 197.323 46.304 196.891 46.304ZM205.478 57.626C204.41 57.626 203.474 57.416 202.67 56.996C201.878 56.564 201.26 55.976 200.816 55.232C200.384 54.488 200.168 53.642 200.168 52.694C200.168 51.734 200.378 50.888 200.798 50.156C201.23 49.412 201.818 48.83 202.562 48.41C203.318 47.99 204.176 47.78 205.136 47.78C206.072 47.78 206.906 47.984 207.638 48.392C208.37 48.8 208.946 49.376 209.366 50.12C209.786 50.864 209.996 51.74 209.996 52.748C209.996 52.844 209.99 52.952 209.978 53.072C209.978 53.192 209.972 53.306 209.96 53.414H201.95V51.92H208.772L207.89 52.388C207.902 51.836 207.788 51.35 207.548 50.93C207.308 50.51 206.978 50.18 206.558 49.94C206.15 49.7 205.676 49.58 205.136 49.58C204.584 49.58 204.098 49.7 203.678 49.94C203.27 50.18 202.946 50.516 202.706 50.948C202.478 51.368 202.364 51.866 202.364 52.442V52.802C202.364 53.378 202.496 53.888 202.76 54.332C203.024 54.776 203.396 55.118 203.876 55.358C204.356 55.598 204.908 55.718 205.532 55.718C206.072 55.718 206.558 55.634 206.99 55.466C207.422 55.298 207.806 55.034 208.142 54.674L209.348 56.06C208.916 56.564 208.37 56.954 207.71 57.23C207.062 57.494 206.318 57.626 205.478 57.626ZM217.612 47.78C218.38 47.78 219.064 47.93 219.664 48.23C220.276 48.53 220.756 48.992 221.104 49.616C221.452 50.228 221.626 51.02 221.626 51.992V57.5H219.376V52.28C219.376 51.428 219.172 50.792 218.764 50.372C218.368 49.952 217.81 49.742 217.09 49.742C216.562 49.742 216.094 49.85 215.686 50.066C215.278 50.282 214.96 50.606 214.732 51.038C214.516 51.458 214.408 51.992 214.408 52.64V57.5H212.158V47.888H214.3V50.48L213.922 49.688C214.258 49.076 214.744 48.608 215.38 48.284C216.028 47.948 216.772 47.78 217.612 47.78ZM228.098 57.626C227.042 57.626 226.226 57.356 225.65 56.816C225.074 56.264 224.786 55.454 224.786 54.386V45.764H227.036V54.332C227.036 54.788 227.15 55.142 227.378 55.394C227.618 55.646 227.948 55.772 228.368 55.772C228.872 55.772 229.292 55.64 229.628 55.376L230.258 56.978C229.994 57.194 229.67 57.356 229.286 57.464C228.902 57.572 228.506 57.626 228.098 57.626ZM223.202 49.76V47.96H229.61V49.76H223.202ZM235.079 57.626C234.275 57.626 233.501 57.524 232.757 57.32C232.025 57.104 231.443 56.846 231.011 56.546L231.875 54.836C232.307 55.112 232.823 55.34 233.423 55.52C234.023 55.7 234.623 55.79 235.223 55.79C235.931 55.79 236.441 55.694 236.753 55.502C237.077 55.31 237.239 55.052 237.239 54.728C237.239 54.464 237.131 54.266 236.915 54.134C236.699 53.99 236.417 53.882 236.069 53.81C235.721 53.738 235.331 53.672 234.899 53.612C234.479 53.552 234.053 53.474 233.621 53.378C233.201 53.27 232.817 53.12 232.469 52.928C232.121 52.724 231.839 52.454 231.623 52.118C231.407 51.782 231.299 51.338 231.299 50.786C231.299 50.174 231.473 49.646 231.821 49.202C232.169 48.746 232.655 48.398 233.279 48.158C233.915 47.906 234.665 47.78 235.529 47.78C236.177 47.78 236.831 47.852 237.491 47.996C238.151 48.14 238.697 48.344 239.129 48.608L238.265 50.318C237.809 50.042 237.347 49.856 236.879 49.76C236.423 49.652 235.967 49.598 235.511 49.598C234.827 49.598 234.317 49.7 233.981 49.904C233.657 50.108 233.495 50.366 233.495 50.678C233.495 50.966 233.603 51.182 233.819 51.326C234.035 51.47 234.317 51.584 234.665 51.668C235.013 51.752 235.397 51.824 235.817 51.884C236.249 51.932 236.675 52.01 237.095 52.118C237.515 52.226 237.899 52.376 238.247 52.568C238.607 52.748 238.895 53.006 239.111 53.342C239.327 53.678 239.435 54.116 239.435 54.656C239.435 55.256 239.255 55.778 238.895 56.222C238.547 56.666 238.049 57.014 237.401 57.266C236.753 57.506 235.979 57.626 235.079 57.626Z" fill="white"/>
</svg>
