<svg width="287" height="76" viewBox="0 0 287 76" fill="none" xmlns="http://www.w3.org/2000/svg">
<path d="M15.3829 52.25V24.35H22.0169V52.25H15.3829ZM4.40891 41.4V35.2H32.9909V41.4H4.40891ZM52.1063 60.62C49.0476 60.62 46.0509 60.186 43.1163 59.318C40.2229 58.4087 37.7843 57.1687 35.8003 55.598L39.2723 49.336C40.8429 50.6173 42.7443 51.6507 44.9763 52.436C47.2083 53.2213 49.5436 53.614 51.9823 53.614C54.8756 53.614 57.1283 53.0353 58.7403 51.878C60.3523 50.6793 61.1583 49.0673 61.1583 47.042C61.1583 45.058 60.4143 43.4873 58.9263 42.33C57.4383 41.1727 55.0409 40.594 51.7343 40.594H47.7663V35.076L60.1663 20.32L61.2203 23.358H37.9083V16.6H67.4823V21.994L55.0823 36.75L50.8663 34.27H53.2843C58.6163 34.27 62.6049 35.4687 65.2503 37.866C67.9369 40.222 69.2803 43.26 69.2803 46.98C69.2803 49.4187 68.6603 51.6713 67.4203 53.738C66.1803 55.8047 64.279 57.4787 61.7163 58.76C59.1949 60 55.9916 60.62 52.1063 60.62ZM73.9322 50.142V44.562L95.3222 16.6H103.94L82.8602 44.562L78.8302 43.322H113.24V50.142H73.9322ZM97.7402 60V50.142L97.9882 43.322V34.58H105.552V60H97.7402ZM134.736 60.62C131.306 60.62 128.206 59.752 125.436 58.016C122.708 56.28 120.559 53.7587 118.988 50.452C117.418 47.104 116.632 43.0533 116.632 38.3C116.632 33.5467 117.418 29.5167 118.988 26.21C120.559 22.862 122.708 20.32 125.436 18.584C128.206 16.848 131.306 15.98 134.736 15.98C138.208 15.98 141.308 16.848 144.036 18.584C146.764 20.32 148.914 22.862 150.484 26.21C152.096 29.5167 152.902 33.5467 152.902 38.3C152.902 43.0533 152.096 47.104 150.484 50.452C148.914 53.7587 146.764 56.28 144.036 58.016C141.308 59.752 138.208 60.62 134.736 60.62ZM134.736 53.614C136.762 53.614 138.518 53.0767 140.006 52.002C141.494 50.886 142.652 49.1913 143.478 46.918C144.346 44.6447 144.78 41.772 144.78 38.3C144.78 34.7867 144.346 31.914 143.478 29.682C142.652 27.4087 141.494 25.7347 140.006 24.66C138.518 23.544 136.762 22.986 134.736 22.986C132.794 22.986 131.058 23.544 129.528 24.66C128.04 25.7347 126.862 27.4087 125.994 29.682C125.168 31.914 124.754 34.7867 124.754 38.3C124.754 41.772 125.168 44.6447 125.994 46.918C126.862 49.1913 128.04 50.886 129.528 52.002C131.058 53.0767 132.794 53.614 134.736 53.614Z" fill="white"/>
<path d="M182.598 30.68C181.614 30.68 180.672 30.542 179.772 30.266C178.872 29.978 178.158 29.612 177.63 29.168L178.44 27.35C178.944 27.746 179.568 28.076 180.312 28.34C181.056 28.604 181.818 28.736 182.598 28.736C183.258 28.736 183.792 28.664 184.2 28.52C184.608 28.376 184.908 28.184 185.1 27.944C185.292 27.692 185.388 27.41 185.388 27.098C185.388 26.714 185.25 26.408 184.974 26.18C184.698 25.94 184.338 25.754 183.894 25.622C183.462 25.478 182.976 25.346 182.436 25.226C181.908 25.106 181.374 24.968 180.834 24.812C180.306 24.644 179.82 24.434 179.376 24.182C178.944 23.918 178.59 23.57 178.314 23.138C178.038 22.706 177.9 22.154 177.9 21.482C177.9 20.798 178.08 20.174 178.44 19.61C178.812 19.034 179.37 18.578 180.114 18.242C180.87 17.894 181.824 17.72 182.976 17.72C183.732 17.72 184.482 17.816 185.226 18.008C185.97 18.2 186.618 18.476 187.17 18.836L186.432 20.654C185.868 20.318 185.286 20.072 184.686 19.916C184.086 19.748 183.51 19.664 182.958 19.664C182.31 19.664 181.782 19.742 181.374 19.898C180.978 20.054 180.684 20.258 180.492 20.51C180.312 20.762 180.222 21.05 180.222 21.374C180.222 21.758 180.354 22.07 180.618 22.31C180.894 22.538 181.248 22.718 181.68 22.85C182.124 22.982 182.616 23.114 183.156 23.246C183.696 23.366 184.23 23.504 184.758 23.66C185.298 23.816 185.784 24.02 186.216 24.272C186.66 24.524 187.014 24.866 187.278 25.298C187.554 25.73 187.692 26.276 187.692 26.936C187.692 27.608 187.506 28.232 187.134 28.808C186.774 29.372 186.216 29.828 185.46 30.176C184.704 30.512 183.75 30.68 182.598 30.68ZM195.718 30.5V28.556L195.592 28.142V24.74C195.592 24.08 195.394 23.57 194.998 23.21C194.602 22.838 194.002 22.652 193.198 22.652C192.658 22.652 192.124 22.736 191.596 22.904C191.08 23.072 190.642 23.306 190.282 23.606L189.4 21.968C189.916 21.572 190.528 21.278 191.236 21.086C191.956 20.882 192.7 20.78 193.468 20.78C194.86 20.78 195.934 21.116 196.69 21.788C197.458 22.448 197.842 23.474 197.842 24.866V30.5H195.718ZM192.694 30.626C191.974 30.626 191.344 30.506 190.804 30.266C190.264 30.014 189.844 29.672 189.544 29.24C189.256 28.796 189.112 28.298 189.112 27.746C189.112 27.206 189.238 26.72 189.49 26.288C189.754 25.856 190.18 25.514 190.768 25.262C191.356 25.01 192.136 24.884 193.108 24.884H195.898V26.378H193.27C192.502 26.378 191.986 26.504 191.722 26.756C191.458 26.996 191.326 27.296 191.326 27.656C191.326 28.064 191.488 28.388 191.812 28.628C192.136 28.868 192.586 28.988 193.162 28.988C193.714 28.988 194.206 28.862 194.638 28.61C195.082 28.358 195.4 27.986 195.592 27.494L195.97 28.844C195.754 29.408 195.364 29.846 194.8 30.158C194.248 30.47 193.546 30.626 192.694 30.626ZM204.348 30.626C203.292 30.626 202.476 30.356 201.9 29.816C201.324 29.264 201.036 28.454 201.036 27.386V18.764H203.286V27.332C203.286 27.788 203.4 28.142 203.628 28.394C203.868 28.646 204.198 28.772 204.618 28.772C205.122 28.772 205.542 28.64 205.878 28.376L206.508 29.978C206.244 30.194 205.92 30.356 205.536 30.464C205.152 30.572 204.756 30.626 204.348 30.626ZM199.452 22.76V20.96H205.86V22.76H199.452ZM208.359 30.5V20.888H210.609V30.5H208.359ZM209.493 19.304C209.073 19.304 208.725 19.172 208.449 18.908C208.185 18.644 208.053 18.326 208.053 17.954C208.053 17.57 208.185 17.252 208.449 17C208.725 16.736 209.073 16.604 209.493 16.604C209.913 16.604 210.255 16.73 210.519 16.982C210.795 17.222 210.933 17.528 210.933 17.9C210.933 18.296 210.801 18.632 210.537 18.908C210.273 19.172 209.925 19.304 209.493 19.304ZM216.532 30.626C215.728 30.626 214.954 30.524 214.21 30.32C213.478 30.104 212.896 29.846 212.464 29.546L213.328 27.836C213.76 28.112 214.276 28.34 214.876 28.52C215.476 28.7 216.076 28.79 216.676 28.79C217.384 28.79 217.894 28.694 218.206 28.502C218.53 28.31 218.692 28.052 218.692 27.728C218.692 27.464 218.584 27.266 218.368 27.134C218.152 26.99 217.87 26.882 217.522 26.81C217.174 26.738 216.784 26.672 216.352 26.612C215.932 26.552 215.506 26.474 215.074 26.378C214.654 26.27 214.27 26.12 213.922 25.928C213.574 25.724 213.292 25.454 213.076 25.118C212.86 24.782 212.752 24.338 212.752 23.786C212.752 23.174 212.926 22.646 213.274 22.202C213.622 21.746 214.108 21.398 214.732 21.158C215.368 20.906 216.118 20.78 216.982 20.78C217.63 20.78 218.284 20.852 218.944 20.996C219.604 21.14 220.15 21.344 220.582 21.608L219.718 23.318C219.262 23.042 218.8 22.856 218.332 22.76C217.876 22.652 217.42 22.598 216.964 22.598C216.28 22.598 215.77 22.7 215.434 22.904C215.11 23.108 214.948 23.366 214.948 23.678C214.948 23.966 215.056 24.182 215.272 24.326C215.488 24.47 215.77 24.584 216.118 24.668C216.466 24.752 216.85 24.824 217.27 24.884C217.702 24.932 218.128 25.01 218.548 25.118C218.968 25.226 219.352 25.376 219.7 25.568C220.06 25.748 220.348 26.006 220.564 26.342C220.78 26.678 220.888 27.116 220.888 27.656C220.888 28.256 220.708 28.778 220.348 29.222C220 29.666 219.502 30.014 218.854 30.266C218.206 30.506 217.432 30.626 216.532 30.626ZM223.132 30.5V20.348C223.132 19.34 223.426 18.536 224.014 17.936C224.614 17.324 225.466 17.018 226.57 17.018C226.966 17.018 227.338 17.06 227.686 17.144C228.046 17.228 228.346 17.36 228.586 17.54L227.974 19.232C227.806 19.1 227.614 19.004 227.398 18.944C227.182 18.872 226.96 18.836 226.732 18.836C226.264 18.836 225.91 18.968 225.67 19.232C225.43 19.484 225.31 19.868 225.31 20.384V21.464L225.382 22.472V30.5H223.132ZM221.548 22.76V20.96H227.956V22.76H221.548ZM235.216 30.5V28.556L235.09 28.142V24.74C235.09 24.08 234.892 23.57 234.496 23.21C234.1 22.838 233.5 22.652 232.696 22.652C232.156 22.652 231.622 22.736 231.094 22.904C230.578 23.072 230.14 23.306 229.78 23.606L228.898 21.968C229.414 21.572 230.026 21.278 230.734 21.086C231.454 20.882 232.198 20.78 232.966 20.78C234.358 20.78 235.432 21.116 236.188 21.788C236.956 22.448 237.34 23.474 237.34 24.866V30.5H235.216ZM232.192 30.626C231.472 30.626 230.842 30.506 230.302 30.266C229.762 30.014 229.342 29.672 229.042 29.24C228.754 28.796 228.61 28.298 228.61 27.746C228.61 27.206 228.736 26.72 228.988 26.288C229.252 25.856 229.678 25.514 230.266 25.262C230.854 25.01 231.634 24.884 232.606 24.884H235.396V26.378H232.768C232 26.378 231.484 26.504 231.22 26.756C230.956 26.996 230.824 27.296 230.824 27.656C230.824 28.064 230.986 28.388 231.31 28.628C231.634 28.868 232.084 28.988 232.66 28.988C233.212 28.988 233.704 28.862 234.136 28.61C234.58 28.358 234.898 27.986 235.09 27.494L235.468 28.844C235.252 29.408 234.862 29.846 234.298 30.158C233.746 30.47 233.044 30.626 232.192 30.626ZM244.656 30.626C243.648 30.626 242.748 30.416 241.956 29.996C241.176 29.564 240.564 28.976 240.12 28.232C239.676 27.488 239.454 26.642 239.454 25.694C239.454 24.734 239.676 23.888 240.12 23.156C240.564 22.412 241.176 21.83 241.956 21.41C242.748 20.99 243.648 20.78 244.656 20.78C245.592 20.78 246.414 20.972 247.122 21.356C247.842 21.728 248.388 22.28 248.76 23.012L247.032 24.02C246.744 23.564 246.39 23.228 245.97 23.012C245.562 22.796 245.118 22.688 244.638 22.688C244.086 22.688 243.588 22.808 243.144 23.048C242.7 23.288 242.352 23.636 242.1 24.092C241.848 24.536 241.722 25.07 241.722 25.694C241.722 26.318 241.848 26.858 242.1 27.314C242.352 27.758 242.7 28.1 243.144 28.34C243.588 28.58 244.086 28.7 244.638 28.7C245.118 28.7 245.562 28.592 245.97 28.376C246.39 28.16 246.744 27.824 247.032 27.368L248.76 28.376C248.388 29.096 247.842 29.654 247.122 30.05C246.414 30.434 245.592 30.626 244.656 30.626ZM254.446 30.626C253.39 30.626 252.574 30.356 251.998 29.816C251.422 29.264 251.134 28.454 251.134 27.386V18.764H253.384V27.332C253.384 27.788 253.498 28.142 253.726 28.394C253.966 28.646 254.296 28.772 254.716 28.772C255.22 28.772 255.64 28.64 255.976 28.376L256.606 29.978C256.342 30.194 256.018 30.356 255.634 30.464C255.25 30.572 254.854 30.626 254.446 30.626ZM249.55 22.76V20.96H255.958V22.76H249.55ZM258.456 30.5V20.888H260.706V30.5H258.456ZM259.59 19.304C259.17 19.304 258.822 19.172 258.546 18.908C258.282 18.644 258.15 18.326 258.15 17.954C258.15 17.57 258.282 17.252 258.546 17C258.822 16.736 259.17 16.604 259.59 16.604C260.01 16.604 260.352 16.73 260.616 16.982C260.892 17.222 261.03 17.528 261.03 17.9C261.03 18.296 260.898 18.632 260.634 18.908C260.37 19.172 260.022 19.304 259.59 19.304ZM267.98 30.626C266.996 30.626 266.12 30.416 265.352 29.996C264.584 29.564 263.978 28.976 263.534 28.232C263.09 27.488 262.868 26.642 262.868 25.694C262.868 24.734 263.09 23.888 263.534 23.156C263.978 22.412 264.584 21.83 265.352 21.41C266.12 20.99 266.996 20.78 267.98 20.78C268.976 20.78 269.858 20.99 270.626 21.41C271.406 21.83 272.012 22.406 272.444 23.138C272.888 23.87 273.11 24.722 273.11 25.694C273.11 26.642 272.888 27.488 272.444 28.232C272.012 28.976 271.406 29.564 270.626 29.996C269.858 30.416 268.976 30.626 267.98 30.626ZM267.98 28.7C268.532 28.7 269.024 28.58 269.456 28.34C269.888 28.1 270.224 27.752 270.464 27.296C270.716 26.84 270.842 26.306 270.842 25.694C270.842 25.07 270.716 24.536 270.464 24.092C270.224 23.636 269.888 23.288 269.456 23.048C269.024 22.808 268.538 22.688 267.998 22.688C267.446 22.688 266.954 22.808 266.522 23.048C266.102 23.288 265.766 23.636 265.514 24.092C265.262 24.536 265.136 25.07 265.136 25.694C265.136 26.306 265.262 26.84 265.514 27.296C265.766 27.752 266.102 28.1 266.522 28.34C266.954 28.58 267.44 28.7 267.98 28.7ZM280.715 20.78C281.483 20.78 282.167 20.93 282.767 21.23C283.379 21.53 283.859 21.992 284.207 22.616C284.555 23.228 284.729 24.02 284.729 24.992V30.5H282.479V25.28C282.479 24.428 282.275 23.792 281.867 23.372C281.471 22.952 280.913 22.742 280.193 22.742C279.665 22.742 279.197 22.85 278.789 23.066C278.381 23.282 278.063 23.606 277.835 24.038C277.619 24.458 277.511 24.992 277.511 25.64V30.5H275.261V20.888H277.403V23.48L277.025 22.688C277.361 22.076 277.847 21.608 278.483 21.284C279.131 20.948 279.875 20.78 280.715 20.78Z" fill="white"/>
<path d="M184.524 57.68C183.564 57.68 182.67 57.524 181.842 57.212C181.026 56.888 180.312 56.438 179.7 55.862C179.1 55.274 178.632 54.584 178.296 53.792C177.96 53 177.792 52.136 177.792 51.2C177.792 50.264 177.96 49.4 178.296 48.608C178.632 47.816 179.106 47.132 179.718 46.556C180.33 45.968 181.044 45.518 181.86 45.206C182.676 44.882 183.57 44.72 184.542 44.72C185.574 44.72 186.516 44.9 187.368 45.26C188.22 45.608 188.94 46.13 189.528 46.826L188.016 48.248C187.56 47.756 187.05 47.39 186.486 47.15C185.922 46.898 185.31 46.772 184.65 46.772C183.99 46.772 183.384 46.88 182.832 47.096C182.292 47.312 181.818 47.618 181.41 48.014C181.014 48.41 180.702 48.878 180.474 49.418C180.258 49.958 180.15 50.552 180.15 51.2C180.15 51.848 180.258 52.442 180.474 52.982C180.702 53.522 181.014 53.99 181.41 54.386C181.818 54.782 182.292 55.088 182.832 55.304C183.384 55.52 183.99 55.628 184.65 55.628C185.31 55.628 185.922 55.508 186.486 55.268C187.05 55.016 187.56 54.638 188.016 54.134L189.528 55.574C188.94 56.258 188.22 56.78 187.368 57.14C186.516 57.5 185.568 57.68 184.524 57.68ZM191.554 57.5V44.144H193.804V57.5H191.554ZM196.757 57.5V47.888H199.007V57.5H196.757ZM197.891 46.304C197.471 46.304 197.123 46.172 196.847 45.908C196.583 45.644 196.451 45.326 196.451 44.954C196.451 44.57 196.583 44.252 196.847 44C197.123 43.736 197.471 43.604 197.891 43.604C198.311 43.604 198.653 43.73 198.917 43.982C199.193 44.222 199.331 44.528 199.331 44.9C199.331 45.296 199.199 45.632 198.935 45.908C198.671 46.172 198.323 46.304 197.891 46.304ZM206.478 57.626C205.41 57.626 204.474 57.416 203.67 56.996C202.878 56.564 202.26 55.976 201.816 55.232C201.384 54.488 201.168 53.642 201.168 52.694C201.168 51.734 201.378 50.888 201.798 50.156C202.23 49.412 202.818 48.83 203.562 48.41C204.318 47.99 205.176 47.78 206.136 47.78C207.072 47.78 207.906 47.984 208.638 48.392C209.37 48.8 209.946 49.376 210.366 50.12C210.786 50.864 210.996 51.74 210.996 52.748C210.996 52.844 210.99 52.952 210.978 53.072C210.978 53.192 210.972 53.306 210.96 53.414H202.95V51.92H209.772L208.89 52.388C208.902 51.836 208.788 51.35 208.548 50.93C208.308 50.51 207.978 50.18 207.558 49.94C207.15 49.7 206.676 49.58 206.136 49.58C205.584 49.58 205.098 49.7 204.678 49.94C204.27 50.18 203.946 50.516 203.706 50.948C203.478 51.368 203.364 51.866 203.364 52.442V52.802C203.364 53.378 203.496 53.888 203.76 54.332C204.024 54.776 204.396 55.118 204.876 55.358C205.356 55.598 205.908 55.718 206.532 55.718C207.072 55.718 207.558 55.634 207.99 55.466C208.422 55.298 208.806 55.034 209.142 54.674L210.348 56.06C209.916 56.564 209.37 56.954 208.71 57.23C208.062 57.494 207.318 57.626 206.478 57.626ZM218.612 47.78C219.38 47.78 220.064 47.93 220.664 48.23C221.276 48.53 221.756 48.992 222.104 49.616C222.452 50.228 222.626 51.02 222.626 51.992V57.5H220.376V52.28C220.376 51.428 220.172 50.792 219.764 50.372C219.368 49.952 218.81 49.742 218.09 49.742C217.562 49.742 217.094 49.85 216.686 50.066C216.278 50.282 215.96 50.606 215.732 51.038C215.516 51.458 215.408 51.992 215.408 52.64V57.5H213.158V47.888H215.3V50.48L214.922 49.688C215.258 49.076 215.744 48.608 216.38 48.284C217.028 47.948 217.772 47.78 218.612 47.78ZM229.098 57.626C228.042 57.626 227.226 57.356 226.65 56.816C226.074 56.264 225.786 55.454 225.786 54.386V45.764H228.036V54.332C228.036 54.788 228.15 55.142 228.378 55.394C228.618 55.646 228.948 55.772 229.368 55.772C229.872 55.772 230.292 55.64 230.628 55.376L231.258 56.978C230.994 57.194 230.67 57.356 230.286 57.464C229.902 57.572 229.506 57.626 229.098 57.626ZM224.202 49.76V47.96H230.61V49.76H224.202ZM236.079 57.626C235.275 57.626 234.501 57.524 233.757 57.32C233.025 57.104 232.443 56.846 232.011 56.546L232.875 54.836C233.307 55.112 233.823 55.34 234.423 55.52C235.023 55.7 235.623 55.79 236.223 55.79C236.931 55.79 237.441 55.694 237.753 55.502C238.077 55.31 238.239 55.052 238.239 54.728C238.239 54.464 238.131 54.266 237.915 54.134C237.699 53.99 237.417 53.882 237.069 53.81C236.721 53.738 236.331 53.672 235.899 53.612C235.479 53.552 235.053 53.474 234.621 53.378C234.201 53.27 233.817 53.12 233.469 52.928C233.121 52.724 232.839 52.454 232.623 52.118C232.407 51.782 232.299 51.338 232.299 50.786C232.299 50.174 232.473 49.646 232.821 49.202C233.169 48.746 233.655 48.398 234.279 48.158C234.915 47.906 235.665 47.78 236.529 47.78C237.177 47.78 237.831 47.852 238.491 47.996C239.151 48.14 239.697 48.344 240.129 48.608L239.265 50.318C238.809 50.042 238.347 49.856 237.879 49.76C237.423 49.652 236.967 49.598 236.511 49.598C235.827 49.598 235.317 49.7 234.981 49.904C234.657 50.108 234.495 50.366 234.495 50.678C234.495 50.966 234.603 51.182 234.819 51.326C235.035 51.47 235.317 51.584 235.665 51.668C236.013 51.752 236.397 51.824 236.817 51.884C237.249 51.932 237.675 52.01 238.095 52.118C238.515 52.226 238.899 52.376 239.247 52.568C239.607 52.748 239.895 53.006 240.111 53.342C240.327 53.678 240.435 54.116 240.435 54.656C240.435 55.256 240.255 55.778 239.895 56.222C239.547 56.666 239.049 57.014 238.401 57.266C237.753 57.506 236.979 57.626 236.079 57.626Z" fill="white"/>
</svg>
