<svg width="275" height="76" viewBox="0 0 275 76" fill="none" xmlns="http://www.w3.org/2000/svg">
<path d="M15.3712 52.25V24.35H22.0052V52.25H15.3712ZM4.39719 41.4V35.2H32.9792V41.4H4.39719ZM45.3986 60V19.7L48.9326 23.358H36.2226V16.6H53.4586V60H45.3986ZM61.5098 60V54.606L78.7458 38.238C80.1925 36.874 81.2672 35.6753 81.9698 34.642C82.6725 33.6087 83.1272 32.658 83.3338 31.79C83.5818 30.8807 83.7058 30.0333 83.7058 29.248C83.7058 27.264 83.0238 25.7347 81.6598 24.66C80.2958 23.544 78.2912 22.986 75.6458 22.986C73.5378 22.986 71.6158 23.358 69.8798 24.102C68.1852 24.846 66.7178 25.9827 65.4778 27.512L59.8358 23.172C61.5305 20.8987 63.8038 19.142 66.6558 17.902C69.5492 16.6207 72.7732 15.98 76.3278 15.98C79.4692 15.98 82.1972 16.4967 84.5118 17.53C86.8678 18.522 88.6658 19.948 89.9058 21.808C91.1872 23.668 91.8278 25.8793 91.8278 28.442C91.8278 29.8473 91.6418 31.2527 91.2698 32.658C90.8978 34.022 90.1952 35.4687 89.1618 36.998C88.1285 38.5273 86.6198 40.2427 84.6358 42.144L69.8178 56.218L68.1438 53.18H93.5018V60H61.5098ZM112.538 60.62C109.479 60.62 106.482 60.186 103.548 59.318C100.654 58.4087 98.2158 57.1687 96.2318 55.598L99.6418 49.336C101.212 50.6173 103.114 51.6507 105.346 52.436C107.619 53.2213 109.975 53.614 112.414 53.614C115.266 53.614 117.498 53.0147 119.11 51.816C120.763 50.6173 121.59 49.0053 121.59 46.98C121.59 45.616 121.238 44.4173 120.536 43.384C119.874 42.3507 118.676 41.5653 116.94 41.028C115.245 40.4907 112.91 40.222 109.934 40.222H99.4558L101.688 16.6H127.17V23.358H104.664L108.88 19.514L107.206 37.184L102.99 33.402H111.732C116.03 33.402 119.482 33.9807 122.086 35.138C124.731 36.254 126.653 37.8247 127.852 39.85C129.092 41.834 129.712 44.1073 129.712 46.67C129.712 49.1913 129.092 51.506 127.852 53.614C126.612 55.722 124.71 57.4167 122.148 58.698C119.626 59.9793 116.423 60.62 112.538 60.62Z" fill="white"/>
<path d="M170.598 30.68C169.614 30.68 168.672 30.542 167.772 30.266C166.872 29.978 166.158 29.612 165.63 29.168L166.44 27.35C166.944 27.746 167.568 28.076 168.312 28.34C169.056 28.604 169.818 28.736 170.598 28.736C171.258 28.736 171.792 28.664 172.2 28.52C172.608 28.376 172.908 28.184 173.1 27.944C173.292 27.692 173.388 27.41 173.388 27.098C173.388 26.714 173.25 26.408 172.974 26.18C172.698 25.94 172.338 25.754 171.894 25.622C171.462 25.478 170.976 25.346 170.436 25.226C169.908 25.106 169.374 24.968 168.834 24.812C168.306 24.644 167.82 24.434 167.376 24.182C166.944 23.918 166.59 23.57 166.314 23.138C166.038 22.706 165.9 22.154 165.9 21.482C165.9 20.798 166.08 20.174 166.44 19.61C166.812 19.034 167.37 18.578 168.114 18.242C168.87 17.894 169.824 17.72 170.976 17.72C171.732 17.72 172.482 17.816 173.226 18.008C173.97 18.2 174.618 18.476 175.17 18.836L174.432 20.654C173.868 20.318 173.286 20.072 172.686 19.916C172.086 19.748 171.51 19.664 170.958 19.664C170.31 19.664 169.782 19.742 169.374 19.898C168.978 20.054 168.684 20.258 168.492 20.51C168.312 20.762 168.222 21.05 168.222 21.374C168.222 21.758 168.354 22.07 168.618 22.31C168.894 22.538 169.248 22.718 169.68 22.85C170.124 22.982 170.616 23.114 171.156 23.246C171.696 23.366 172.23 23.504 172.758 23.66C173.298 23.816 173.784 24.02 174.216 24.272C174.66 24.524 175.014 24.866 175.278 25.298C175.554 25.73 175.692 26.276 175.692 26.936C175.692 27.608 175.506 28.232 175.134 28.808C174.774 29.372 174.216 29.828 173.46 30.176C172.704 30.512 171.75 30.68 170.598 30.68ZM183.718 30.5V28.556L183.592 28.142V24.74C183.592 24.08 183.394 23.57 182.998 23.21C182.602 22.838 182.002 22.652 181.198 22.652C180.658 22.652 180.124 22.736 179.596 22.904C179.08 23.072 178.642 23.306 178.282 23.606L177.4 21.968C177.916 21.572 178.528 21.278 179.236 21.086C179.956 20.882 180.7 20.78 181.468 20.78C182.86 20.78 183.934 21.116 184.69 21.788C185.458 22.448 185.842 23.474 185.842 24.866V30.5H183.718ZM180.694 30.626C179.974 30.626 179.344 30.506 178.804 30.266C178.264 30.014 177.844 29.672 177.544 29.24C177.256 28.796 177.112 28.298 177.112 27.746C177.112 27.206 177.238 26.72 177.49 26.288C177.754 25.856 178.18 25.514 178.768 25.262C179.356 25.01 180.136 24.884 181.108 24.884H183.898V26.378H181.27C180.502 26.378 179.986 26.504 179.722 26.756C179.458 26.996 179.326 27.296 179.326 27.656C179.326 28.064 179.488 28.388 179.812 28.628C180.136 28.868 180.586 28.988 181.162 28.988C181.714 28.988 182.206 28.862 182.638 28.61C183.082 28.358 183.4 27.986 183.592 27.494L183.97 28.844C183.754 29.408 183.364 29.846 182.8 30.158C182.248 30.47 181.546 30.626 180.694 30.626ZM192.348 30.626C191.292 30.626 190.476 30.356 189.9 29.816C189.324 29.264 189.036 28.454 189.036 27.386V18.764H191.286V27.332C191.286 27.788 191.4 28.142 191.628 28.394C191.868 28.646 192.198 28.772 192.618 28.772C193.122 28.772 193.542 28.64 193.878 28.376L194.508 29.978C194.244 30.194 193.92 30.356 193.536 30.464C193.152 30.572 192.756 30.626 192.348 30.626ZM187.452 22.76V20.96H193.86V22.76H187.452ZM196.359 30.5V20.888H198.609V30.5H196.359ZM197.493 19.304C197.073 19.304 196.725 19.172 196.449 18.908C196.185 18.644 196.053 18.326 196.053 17.954C196.053 17.57 196.185 17.252 196.449 17C196.725 16.736 197.073 16.604 197.493 16.604C197.913 16.604 198.255 16.73 198.519 16.982C198.795 17.222 198.933 17.528 198.933 17.9C198.933 18.296 198.801 18.632 198.537 18.908C198.273 19.172 197.925 19.304 197.493 19.304ZM204.532 30.626C203.728 30.626 202.954 30.524 202.21 30.32C201.478 30.104 200.896 29.846 200.464 29.546L201.328 27.836C201.76 28.112 202.276 28.34 202.876 28.52C203.476 28.7 204.076 28.79 204.676 28.79C205.384 28.79 205.894 28.694 206.206 28.502C206.53 28.31 206.692 28.052 206.692 27.728C206.692 27.464 206.584 27.266 206.368 27.134C206.152 26.99 205.87 26.882 205.522 26.81C205.174 26.738 204.784 26.672 204.352 26.612C203.932 26.552 203.506 26.474 203.074 26.378C202.654 26.27 202.27 26.12 201.922 25.928C201.574 25.724 201.292 25.454 201.076 25.118C200.86 24.782 200.752 24.338 200.752 23.786C200.752 23.174 200.926 22.646 201.274 22.202C201.622 21.746 202.108 21.398 202.732 21.158C203.368 20.906 204.118 20.78 204.982 20.78C205.63 20.78 206.284 20.852 206.944 20.996C207.604 21.14 208.15 21.344 208.582 21.608L207.718 23.318C207.262 23.042 206.8 22.856 206.332 22.76C205.876 22.652 205.42 22.598 204.964 22.598C204.28 22.598 203.77 22.7 203.434 22.904C203.11 23.108 202.948 23.366 202.948 23.678C202.948 23.966 203.056 24.182 203.272 24.326C203.488 24.47 203.77 24.584 204.118 24.668C204.466 24.752 204.85 24.824 205.27 24.884C205.702 24.932 206.128 25.01 206.548 25.118C206.968 25.226 207.352 25.376 207.7 25.568C208.06 25.748 208.348 26.006 208.564 26.342C208.78 26.678 208.888 27.116 208.888 27.656C208.888 28.256 208.708 28.778 208.348 29.222C208 29.666 207.502 30.014 206.854 30.266C206.206 30.506 205.432 30.626 204.532 30.626ZM211.132 30.5V20.348C211.132 19.34 211.426 18.536 212.014 17.936C212.614 17.324 213.466 17.018 214.57 17.018C214.966 17.018 215.338 17.06 215.686 17.144C216.046 17.228 216.346 17.36 216.586 17.54L215.974 19.232C215.806 19.1 215.614 19.004 215.398 18.944C215.182 18.872 214.96 18.836 214.732 18.836C214.264 18.836 213.91 18.968 213.67 19.232C213.43 19.484 213.31 19.868 213.31 20.384V21.464L213.382 22.472V30.5H211.132ZM209.548 22.76V20.96H215.956V22.76H209.548ZM223.216 30.5V28.556L223.09 28.142V24.74C223.09 24.08 222.892 23.57 222.496 23.21C222.1 22.838 221.5 22.652 220.696 22.652C220.156 22.652 219.622 22.736 219.094 22.904C218.578 23.072 218.14 23.306 217.78 23.606L216.898 21.968C217.414 21.572 218.026 21.278 218.734 21.086C219.454 20.882 220.198 20.78 220.966 20.78C222.358 20.78 223.432 21.116 224.188 21.788C224.956 22.448 225.34 23.474 225.34 24.866V30.5H223.216ZM220.192 30.626C219.472 30.626 218.842 30.506 218.302 30.266C217.762 30.014 217.342 29.672 217.042 29.24C216.754 28.796 216.61 28.298 216.61 27.746C216.61 27.206 216.736 26.72 216.988 26.288C217.252 25.856 217.678 25.514 218.266 25.262C218.854 25.01 219.634 24.884 220.606 24.884H223.396V26.378H220.768C220 26.378 219.484 26.504 219.22 26.756C218.956 26.996 218.824 27.296 218.824 27.656C218.824 28.064 218.986 28.388 219.31 28.628C219.634 28.868 220.084 28.988 220.66 28.988C221.212 28.988 221.704 28.862 222.136 28.61C222.58 28.358 222.898 27.986 223.09 27.494L223.468 28.844C223.252 29.408 222.862 29.846 222.298 30.158C221.746 30.47 221.044 30.626 220.192 30.626ZM232.656 30.626C231.648 30.626 230.748 30.416 229.956 29.996C229.176 29.564 228.564 28.976 228.12 28.232C227.676 27.488 227.454 26.642 227.454 25.694C227.454 24.734 227.676 23.888 228.12 23.156C228.564 22.412 229.176 21.83 229.956 21.41C230.748 20.99 231.648 20.78 232.656 20.78C233.592 20.78 234.414 20.972 235.122 21.356C235.842 21.728 236.388 22.28 236.76 23.012L235.032 24.02C234.744 23.564 234.39 23.228 233.97 23.012C233.562 22.796 233.118 22.688 232.638 22.688C232.086 22.688 231.588 22.808 231.144 23.048C230.7 23.288 230.352 23.636 230.1 24.092C229.848 24.536 229.722 25.07 229.722 25.694C229.722 26.318 229.848 26.858 230.1 27.314C230.352 27.758 230.7 28.1 231.144 28.34C231.588 28.58 232.086 28.7 232.638 28.7C233.118 28.7 233.562 28.592 233.97 28.376C234.39 28.16 234.744 27.824 235.032 27.368L236.76 28.376C236.388 29.096 235.842 29.654 235.122 30.05C234.414 30.434 233.592 30.626 232.656 30.626ZM242.446 30.626C241.39 30.626 240.574 30.356 239.998 29.816C239.422 29.264 239.134 28.454 239.134 27.386V18.764H241.384V27.332C241.384 27.788 241.498 28.142 241.726 28.394C241.966 28.646 242.296 28.772 242.716 28.772C243.22 28.772 243.64 28.64 243.976 28.376L244.606 29.978C244.342 30.194 244.018 30.356 243.634 30.464C243.25 30.572 242.854 30.626 242.446 30.626ZM237.55 22.76V20.96H243.958V22.76H237.55ZM246.456 30.5V20.888H248.706V30.5H246.456ZM247.59 19.304C247.17 19.304 246.822 19.172 246.546 18.908C246.282 18.644 246.15 18.326 246.15 17.954C246.15 17.57 246.282 17.252 246.546 17C246.822 16.736 247.17 16.604 247.59 16.604C248.01 16.604 248.352 16.73 248.616 16.982C248.892 17.222 249.03 17.528 249.03 17.9C249.03 18.296 248.898 18.632 248.634 18.908C248.37 19.172 248.022 19.304 247.59 19.304ZM255.98 30.626C254.996 30.626 254.12 30.416 253.352 29.996C252.584 29.564 251.978 28.976 251.534 28.232C251.09 27.488 250.868 26.642 250.868 25.694C250.868 24.734 251.09 23.888 251.534 23.156C251.978 22.412 252.584 21.83 253.352 21.41C254.12 20.99 254.996 20.78 255.98 20.78C256.976 20.78 257.858 20.99 258.626 21.41C259.406 21.83 260.012 22.406 260.444 23.138C260.888 23.87 261.11 24.722 261.11 25.694C261.11 26.642 260.888 27.488 260.444 28.232C260.012 28.976 259.406 29.564 258.626 29.996C257.858 30.416 256.976 30.626 255.98 30.626ZM255.98 28.7C256.532 28.7 257.024 28.58 257.456 28.34C257.888 28.1 258.224 27.752 258.464 27.296C258.716 26.84 258.842 26.306 258.842 25.694C258.842 25.07 258.716 24.536 258.464 24.092C258.224 23.636 257.888 23.288 257.456 23.048C257.024 22.808 256.538 22.688 255.998 22.688C255.446 22.688 254.954 22.808 254.522 23.048C254.102 23.288 253.766 23.636 253.514 24.092C253.262 24.536 253.136 25.07 253.136 25.694C253.136 26.306 253.262 26.84 253.514 27.296C253.766 27.752 254.102 28.1 254.522 28.34C254.954 28.58 255.44 28.7 255.98 28.7ZM268.715 20.78C269.483 20.78 270.167 20.93 270.767 21.23C271.379 21.53 271.859 21.992 272.207 22.616C272.555 23.228 272.729 24.02 272.729 24.992V30.5H270.479V25.28C270.479 24.428 270.275 23.792 269.867 23.372C269.471 22.952 268.913 22.742 268.193 22.742C267.665 22.742 267.197 22.85 266.789 23.066C266.381 23.282 266.063 23.606 265.835 24.038C265.619 24.458 265.511 24.992 265.511 25.64V30.5H263.261V20.888H265.403V23.48L265.025 22.688C265.361 22.076 265.847 21.608 266.483 21.284C267.131 20.948 267.875 20.78 268.715 20.78Z" fill="white"/>
<path d="M172.524 57.68C171.564 57.68 170.67 57.524 169.842 57.212C169.026 56.888 168.312 56.438 167.7 55.862C167.1 55.274 166.632 54.584 166.296 53.792C165.96 53 165.792 52.136 165.792 51.2C165.792 50.264 165.96 49.4 166.296 48.608C166.632 47.816 167.106 47.132 167.718 46.556C168.33 45.968 169.044 45.518 169.86 45.206C170.676 44.882 171.57 44.72 172.542 44.72C173.574 44.72 174.516 44.9 175.368 45.26C176.22 45.608 176.94 46.13 177.528 46.826L176.016 48.248C175.56 47.756 175.05 47.39 174.486 47.15C173.922 46.898 173.31 46.772 172.65 46.772C171.99 46.772 171.384 46.88 170.832 47.096C170.292 47.312 169.818 47.618 169.41 48.014C169.014 48.41 168.702 48.878 168.474 49.418C168.258 49.958 168.15 50.552 168.15 51.2C168.15 51.848 168.258 52.442 168.474 52.982C168.702 53.522 169.014 53.99 169.41 54.386C169.818 54.782 170.292 55.088 170.832 55.304C171.384 55.52 171.99 55.628 172.65 55.628C173.31 55.628 173.922 55.508 174.486 55.268C175.05 55.016 175.56 54.638 176.016 54.134L177.528 55.574C176.94 56.258 176.22 56.78 175.368 57.14C174.516 57.5 173.568 57.68 172.524 57.68ZM179.554 57.5V44.144H181.804V57.5H179.554ZM184.757 57.5V47.888H187.007V57.5H184.757ZM185.891 46.304C185.471 46.304 185.123 46.172 184.847 45.908C184.583 45.644 184.451 45.326 184.451 44.954C184.451 44.57 184.583 44.252 184.847 44C185.123 43.736 185.471 43.604 185.891 43.604C186.311 43.604 186.653 43.73 186.917 43.982C187.193 44.222 187.331 44.528 187.331 44.9C187.331 45.296 187.199 45.632 186.935 45.908C186.671 46.172 186.323 46.304 185.891 46.304ZM194.478 57.626C193.41 57.626 192.474 57.416 191.67 56.996C190.878 56.564 190.26 55.976 189.816 55.232C189.384 54.488 189.168 53.642 189.168 52.694C189.168 51.734 189.378 50.888 189.798 50.156C190.23 49.412 190.818 48.83 191.562 48.41C192.318 47.99 193.176 47.78 194.136 47.78C195.072 47.78 195.906 47.984 196.638 48.392C197.37 48.8 197.946 49.376 198.366 50.12C198.786 50.864 198.996 51.74 198.996 52.748C198.996 52.844 198.99 52.952 198.978 53.072C198.978 53.192 198.972 53.306 198.96 53.414H190.95V51.92H197.772L196.89 52.388C196.902 51.836 196.788 51.35 196.548 50.93C196.308 50.51 195.978 50.18 195.558 49.94C195.15 49.7 194.676 49.58 194.136 49.58C193.584 49.58 193.098 49.7 192.678 49.94C192.27 50.18 191.946 50.516 191.706 50.948C191.478 51.368 191.364 51.866 191.364 52.442V52.802C191.364 53.378 191.496 53.888 191.76 54.332C192.024 54.776 192.396 55.118 192.876 55.358C193.356 55.598 193.908 55.718 194.532 55.718C195.072 55.718 195.558 55.634 195.99 55.466C196.422 55.298 196.806 55.034 197.142 54.674L198.348 56.06C197.916 56.564 197.37 56.954 196.71 57.23C196.062 57.494 195.318 57.626 194.478 57.626ZM206.612 47.78C207.38 47.78 208.064 47.93 208.664 48.23C209.276 48.53 209.756 48.992 210.104 49.616C210.452 50.228 210.626 51.02 210.626 51.992V57.5H208.376V52.28C208.376 51.428 208.172 50.792 207.764 50.372C207.368 49.952 206.81 49.742 206.09 49.742C205.562 49.742 205.094 49.85 204.686 50.066C204.278 50.282 203.96 50.606 203.732 51.038C203.516 51.458 203.408 51.992 203.408 52.64V57.5H201.158V47.888H203.3V50.48L202.922 49.688C203.258 49.076 203.744 48.608 204.38 48.284C205.028 47.948 205.772 47.78 206.612 47.78ZM217.098 57.626C216.042 57.626 215.226 57.356 214.65 56.816C214.074 56.264 213.786 55.454 213.786 54.386V45.764H216.036V54.332C216.036 54.788 216.15 55.142 216.378 55.394C216.618 55.646 216.948 55.772 217.368 55.772C217.872 55.772 218.292 55.64 218.628 55.376L219.258 56.978C218.994 57.194 218.67 57.356 218.286 57.464C217.902 57.572 217.506 57.626 217.098 57.626ZM212.202 49.76V47.96H218.61V49.76H212.202ZM224.079 57.626C223.275 57.626 222.501 57.524 221.757 57.32C221.025 57.104 220.443 56.846 220.011 56.546L220.875 54.836C221.307 55.112 221.823 55.34 222.423 55.52C223.023 55.7 223.623 55.79 224.223 55.79C224.931 55.79 225.441 55.694 225.753 55.502C226.077 55.31 226.239 55.052 226.239 54.728C226.239 54.464 226.131 54.266 225.915 54.134C225.699 53.99 225.417 53.882 225.069 53.81C224.721 53.738 224.331 53.672 223.899 53.612C223.479 53.552 223.053 53.474 222.621 53.378C222.201 53.27 221.817 53.12 221.469 52.928C221.121 52.724 220.839 52.454 220.623 52.118C220.407 51.782 220.299 51.338 220.299 50.786C220.299 50.174 220.473 49.646 220.821 49.202C221.169 48.746 221.655 48.398 222.279 48.158C222.915 47.906 223.665 47.78 224.529 47.78C225.177 47.78 225.831 47.852 226.491 47.996C227.151 48.14 227.697 48.344 228.129 48.608L227.265 50.318C226.809 50.042 226.347 49.856 225.879 49.76C225.423 49.652 224.967 49.598 224.511 49.598C223.827 49.598 223.317 49.7 222.981 49.904C222.657 50.108 222.495 50.366 222.495 50.678C222.495 50.966 222.603 51.182 222.819 51.326C223.035 51.47 223.317 51.584 223.665 51.668C224.013 51.752 224.397 51.824 224.817 51.884C225.249 51.932 225.675 52.01 226.095 52.118C226.515 52.226 226.899 52.376 227.247 52.568C227.607 52.748 227.895 53.006 228.111 53.342C228.327 53.678 228.435 54.116 228.435 54.656C228.435 55.256 228.255 55.778 227.895 56.222C227.547 56.666 227.049 57.014 226.401 57.266C225.753 57.506 224.979 57.626 224.079 57.626Z" fill="white"/>
</svg>
