<svg width="182" height="162" viewBox="0 0 182 162" fill="none" xmlns="http://www.w3.org/2000/svg">
<g filter="url(#filter0_d_59_596)">
<rect x="10" y="9" width="162" height="142" rx="5" fill="white"/>
<path d="M103.5 92.5001C106.262 89.7376 110.737 89.7376 113.5 92.5001L126.43 105.43C127.755 106.755 128.5 108.555 128.5 110.43C128.5 114.335 125.335 117.5 121.43 117.5C119.555 117.5 117.755 116.755 116.43 115.43L103.5 102.5C100.737 99.7376 100.737 95.2626 103.5 92.5001Z" stroke="#231F1E" stroke-width="2" stroke-miterlimit="10" stroke-linejoin="round"/>
<path d="M78.5 92.5C92.3071 92.5 103.5 81.3071 103.5 67.5C103.5 53.6929 92.3071 42.5 78.5 42.5C64.6929 42.5 53.5 53.6929 53.5 67.5C53.5 81.3071 64.6929 92.5 78.5 92.5Z" stroke="#231F1E" stroke-width="2" stroke-miterlimit="10" stroke-linejoin="round"/>
<path d="M78.5 52.5C70.215 52.5 63.5 59.215 63.5 67.5" stroke="#231F1E" stroke-width="2" stroke-miterlimit="10" stroke-linejoin="round"/>
<path d="M96 85L103.5 92.5" stroke="#231F1E" stroke-width="2" stroke-miterlimit="10" stroke-linejoin="round"/>
<path d="M91.3125 75.5625H70.6875C69.6562 75.5625 68.8125 74.7188 68.8125 73.6875V69.9375C68.8125 67.875 70.5 66.1875 72.5625 66.1875H89.4375C91.5 66.1875 93.1875 67.875 93.1875 69.9375V73.6875C93.1875 74.7188 92.3438 75.5625 91.3125 75.5625Z" stroke="#231F1E" stroke-width="1.3" stroke-miterlimit="10" stroke-linecap="round" stroke-linejoin="round"/>
<path d="M90.375 66.1875H71.625L73.5 61.875C74.0625 60.5625 75.375 59.625 76.875 59.625H85.0312C86.5312 59.625 87.8438 60.5625 88.5 61.875L90.375 66.1875Z" stroke="#231F1E" stroke-width="1.3" stroke-miterlimit="10" stroke-linecap="round" stroke-linejoin="round"/>
<path d="M75.375 75.5625H69.75V77.4375C69.75 78.4688 70.5937 79.3125 71.625 79.3125H73.5C74.5313 79.3125 75.375 78.4688 75.375 77.4375V75.5625Z" stroke="#231F1E" stroke-width="1.3" stroke-miterlimit="10" stroke-linecap="round" stroke-linejoin="round"/>
<path d="M92.25 75.5625H86.625V77.4375C86.625 78.4688 87.4687 79.3125 88.5 79.3125H90.375C91.4063 79.3125 92.25 78.4688 92.25 77.4375V75.5625Z" stroke="#231F1E" stroke-width="1.3" stroke-miterlimit="10" stroke-linecap="round" stroke-linejoin="round"/>
<path d="M68.8125 65.25H72" stroke="#231F1E" stroke-width="1.3" stroke-miterlimit="10" stroke-linecap="round" stroke-linejoin="round"/>
<path d="M90.375 65.25H93.1875" stroke="#231F1E" stroke-width="1.3" stroke-miterlimit="10" stroke-linecap="round" stroke-linejoin="round"/>
<path d="M85.6875 75.5625H76.3125L77.625 72.8438C77.9062 72.1875 78.5625 71.8125 79.3125 71.8125H82.5938C83.3438 71.8125 84 72.1875 84.2812 72.8438L85.6875 75.5625Z" stroke="#231F1E" stroke-width="1.3" stroke-miterlimit="10" stroke-linecap="round" stroke-linejoin="round"/>
<path d="M71.625 70.875H74.4375" stroke="#231F1E" stroke-width="1.3" stroke-miterlimit="10" stroke-linecap="round" stroke-linejoin="round"/>
<path d="M87.5625 70.875H90.375" stroke="#231F1E" stroke-width="1.3" stroke-miterlimit="10" stroke-linecap="round" stroke-linejoin="round"/>
</g>
<defs>
<filter id="filter0_d_59_596" x="0" y="0" width="182" height="162" filterUnits="userSpaceOnUse" color-interpolation-filters="sRGB">
<feFlood flood-opacity="0" result="BackgroundImageFix"/>
<feColorMatrix in="SourceAlpha" type="matrix" values="0 0 0 0 0 0 0 0 0 0 0 0 0 0 0 0 0 0 127 0" result="hardAlpha"/>
<feOffset dy="1"/>
<feGaussianBlur stdDeviation="5"/>
<feComposite in2="hardAlpha" operator="out"/>
<feColorMatrix type="matrix" values="0 0 0 0 0.137255 0 0 0 0 0.121569 0 0 0 0 0.117647 0 0 0 0.09 0"/>
<feBlend mode="normal" in2="BackgroundImageFix" result="effect1_dropShadow_59_596"/>
<feBlend mode="normal" in="SourceGraphic" in2="effect1_dropShadow_59_596" result="shape"/>
</filter>
</defs>
</svg>
