<svg width="182" height="162" viewBox="0 0 182 162" fill="none" xmlns="http://www.w3.org/2000/svg">
<g filter="url(#filter0_d_59_529)">
<rect x="10" y="9" width="162" height="142" rx="5" fill="white"/>
<path d="M72.25 64.375L77.25 66.875H82.25" stroke="#F47721" stroke-width="1.8"/>
<path d="M106 65.6248L104.37 66.4399C103.81 66.7196 103.166 66.7794 102.565 66.6075L95.4233 64.5671C94.9766 64.4394 94.5143 64.3746 94.0497 64.3745H86.1759C85.3528 64.3745 84.5424 64.5778 83.8166 64.9662C83.0909 65.3547 82.4723 65.9162 82.0157 66.6011L76 75.6248H82.162C82.5736 75.6248 82.9788 75.5233 83.3417 75.3291C83.7046 75.1349 84.0139 74.854 84.2422 74.5115L85.2578 72.9881C85.4861 72.6457 85.7954 72.3647 86.1583 72.1705C86.5212 71.9763 86.9264 71.8748 87.338 71.8748H88.9931C89.4866 71.8748 89.9691 72.021 90.3798 72.2947L109.501 85.0422C109.855 85.278 110.157 85.5834 110.388 85.9398C110.62 86.2961 110.776 86.6961 110.848 87.115C110.92 87.5339 110.905 87.9629 110.806 88.376C110.706 88.7891 110.523 89.1777 110.268 89.5176L110.191 89.6202C109.727 90.2387 109.051 90.6633 108.292 90.8119C107.533 90.9605 106.746 90.8227 106.083 90.4249L96 84.3748" stroke="#F47721" stroke-width="1.8" stroke-linecap="round" stroke-linejoin="round"/>
<path d="M109.75 84.375L114.75 78.125" stroke="#F47721" stroke-width="1.8"/>
<path d="M68.5 84.375L63.5 79.375" stroke="#F47721" stroke-width="1.8"/>
<path d="M75.9906 59.3899L61.0064 83.1249L52.2656 78.1283" stroke="#F47721" stroke-width="1.8" stroke-linecap="round" stroke-linejoin="round"/>
<path d="M78.5145 83.5177L78.6474 83.6053C79.786 84.3501 80.0992 85.8657 79.3497 87.0032L74.3941 94.5239C73.6446 95.6614 72.1245 95.9776 70.9859 95.2328L70.853 95.1452C69.7144 94.4002 69.4012 92.8849 70.1507 91.7474L75.1063 84.2267C75.8559 83.0892 77.3759 82.7727 78.5145 83.5177Z" stroke="#F47721" stroke-width="1.8" stroke-linecap="round" stroke-linejoin="round"/>
<path d="M81.3804 88.4031C82.5393 89.1613 82.8618 90.7048 82.1033 91.8638L78.6811 97.0936C77.9226 98.2523 76.3791 98.5748 75.2202 97.8165C74.0613 97.058 73.7389 95.5145 74.4973 94.3555L77.9196 89.126C78.678 87.967 80.2215 87.6446 81.3804 88.4031Z" stroke="#F47721" stroke-width="1.8" stroke-linecap="round" stroke-linejoin="round"/>
<path d="M84.7143 92.2658C85.8769 93.0185 86.2085 94.5615 85.4578 95.7255L83.2304 99.1795C82.4797 100.344 80.9395 100.675 79.777 99.9217C78.6144 99.169 78.2829 97.6259 79.0335 96.4619L81.261 93.0079C82.0116 91.8439 83.5518 91.5128 84.7143 92.2658Z" stroke="#F47721" stroke-width="1.8" stroke-linecap="round" stroke-linejoin="round"/>
<path d="M72.6167 83.4826C73.7792 84.2354 74.1108 85.7784 73.3602 86.9424L71.1327 90.3964C70.3821 91.5604 68.8418 91.8913 67.6793 91.1383C66.5168 90.3855 66.1852 88.8425 66.9358 87.6785L69.1633 84.2245C69.914 83.0605 71.4542 82.7296 72.6167 83.4826Z" stroke="#F47721" stroke-width="1.8" stroke-linecap="round" stroke-linejoin="round"/>
<path d="M103.51 59.3899L118.494 83.1249L127.235 78.1283" stroke="#F47721" stroke-width="1.8" stroke-linecap="round" stroke-linejoin="round"/>
<path d="M106.629 91.3156L105.555 92.7939C104.997 93.5623 104.169 94.0905 103.237 94.2719C102.305 94.4532 101.338 94.274 100.533 93.7708L93.5 89.375" stroke="#F47721" stroke-width="1.8" stroke-linecap="round" stroke-linejoin="round"/>
<path d="M102.913 95.0174L101.806 96.5424C101.241 97.3207 100.409 97.8629 99.4682 98.0652C98.5279 98.2675 97.546 98.1155 96.7109 97.6382L91 94.375" stroke="#F47721" stroke-width="1.8" stroke-linecap="round" stroke-linejoin="round"/>
<path d="M97.0187 98.1821L95.9227 99.8572C95.5381 100.445 94.9638 100.883 94.2955 101.1C93.6271 101.316 92.9048 101.298 92.2485 101.047L84.75 98.1821" stroke="#F47721" stroke-width="1.8" stroke-linejoin="round"/>
<path d="M59.75 75.625C59.75 75.9565 59.6183 76.2744 59.3839 76.5088C59.1495 76.7432 58.8315 76.875 58.5 76.875C58.1685 76.875 57.8505 76.7432 57.6161 76.5088C57.3817 76.2744 57.25 75.9565 57.25 75.625C57.25 75.2935 57.3817 74.9756 57.6161 74.7412C57.8505 74.5068 58.1685 74.375 58.5 74.375C58.8315 74.375 59.1495 74.5068 59.3839 74.7412C59.6183 74.9756 59.75 75.2935 59.75 75.625Z" fill="#F47721"/>
<path d="M122.25 75.625C122.25 75.9565 122.118 76.2744 121.884 76.5088C121.649 76.7432 121.332 76.875 121 76.875C120.668 76.875 120.351 76.7432 120.116 76.5088C119.882 76.2744 119.75 75.9565 119.75 75.625C119.75 75.2935 119.882 74.9756 120.116 74.7412C120.351 74.5068 120.668 74.375 121 74.375C121.332 74.375 121.649 74.5068 121.884 74.7412C122.118 74.9756 122.25 75.2935 122.25 75.625Z" fill="#F47721"/>
</g>
<defs>
<filter id="filter0_d_59_529" x="0" y="0" width="182" height="162" filterUnits="userSpaceOnUse" color-interpolation-filters="sRGB">
<feFlood flood-opacity="0" result="BackgroundImageFix"/>
<feColorMatrix in="SourceAlpha" type="matrix" values="0 0 0 0 0 0 0 0 0 0 0 0 0 0 0 0 0 0 127 0" result="hardAlpha"/>
<feOffset dy="1"/>
<feGaussianBlur stdDeviation="5"/>
<feComposite in2="hardAlpha" operator="out"/>
<feColorMatrix type="matrix" values="0 0 0 0 0.137255 0 0 0 0 0.121569 0 0 0 0 0.117647 0 0 0 0.09 0"/>
<feBlend mode="normal" in2="BackgroundImageFix" result="effect1_dropShadow_59_529"/>
<feBlend mode="normal" in="SourceGraphic" in2="effect1_dropShadow_59_529" result="shape"/>
</filter>
</defs>
</svg>
