<svg width="68" height="80" viewBox="0 0 68 80" fill="none" xmlns="http://www.w3.org/2000/svg">
<path d="M56.4366 22.1245L59.0405 18.9092L61.4864 20.8867C61.9824 21.2875 62.7327 21.2083 63.1339 20.713C65.7032 17.5403 65.1954 12.7525 62.0229 10.1875C58.813 7.59266 54.0886 8.09062 51.4913 11.2977C51.0894 11.7941 51.1686 12.545 51.6652 12.9466L54.1097 14.923L51.3649 18.3125C47.1561 15.7336 42.3333 14.0631 37.1708 13.5739V7.29734H41.1904C43.1758 7.29734 44.8389 5.63375 44.8389 3.64875C44.8389 1.66328 43.1761 0 41.1905 0H34.4688C32.9574 0 32.9574 2.34375 34.4688 2.34375H41.1905C42.8694 2.34375 42.8725 4.95344 41.1905 4.95344H26.8097C25.1308 4.95344 25.1277 2.34375 26.8097 2.34375H29.1563C30.6677 2.34375 30.6677 0 29.1563 0H26.8096C24.8241 0 23.161 1.66359 23.161 3.64859C23.161 5.63375 24.8238 7.29719 26.8096 7.29719H30.8291V13.5747C16.3236 14.96 4.17098 25.7466 1.31332 40.2422C1.18816 40.8772 1.60145 41.4934 2.23645 41.6186C2.87113 41.7442 3.4877 41.3305 3.61285 40.6955C6.46066 26.2502 19.2404 15.7658 34 15.7658C51.0779 15.7658 64.9718 29.6478 64.9718 46.7109C64.9718 63.7741 51.0779 77.6562 34 77.6562C16.9222 77.6562 3.02832 63.7742 3.02832 46.7111C3.02832 46.0639 2.50363 45.5392 1.85645 45.5392C1.20926 45.5392 0.68457 46.0639 0.68457 46.7111C0.68457 65.0666 15.6299 80 34 80C52.3702 80 67.3155 65.0666 67.3155 46.7111C67.3155 36.983 63.1172 28.2167 56.4366 22.1245ZM60.5494 12.01C61.6175 12.8736 62.2852 14.1011 62.4293 15.4663C62.5314 16.4345 62.3616 17.3898 61.946 18.2442L59.6044 16.3511L59.6043 16.3509L59.6041 16.3508L56.4963 13.8383L54.156 11.9461C55.9999 10.5145 58.6574 10.4806 60.5494 12.01ZM55.9325 16.3966L57.2178 17.4358L54.6499 20.6067C54.2178 20.2647 53.7774 19.9328 53.3285 19.6122L55.9325 16.3966ZM33.173 13.4331V7.29719H34.8272V13.4327C34.5522 13.4259 34.2766 13.4222 34.0002 13.4222C33.7236 13.422 33.448 13.4264 33.173 13.4331Z" fill="#E53F29"/>
<path d="M51.2893 68.2579C57.8662 62.9823 61.638 55.1287 61.638 46.711C61.638 31.4832 49.2395 19.0945 33.9996 19.0945C18.7598 19.0945 6.36133 31.4832 6.36133 46.711C6.36133 61.9389 18.7599 74.3275 33.9998 74.3275C37.8574 74.3275 41.5907 73.5484 45.0954 72.0117C46.4796 71.4048 45.5384 69.2582 44.1543 69.8653C40.948 71.271 37.5316 71.9839 33.9999 71.9839C20.0524 71.9839 8.70523 60.6465 8.70523 46.711C8.70523 32.7756 20.0523 21.4382 33.9998 21.4382C47.9473 21.4382 59.2944 32.7756 59.2944 46.711C59.2944 54.4142 55.8421 61.6014 49.8229 66.4296C48.6438 67.3754 50.1102 69.2034 51.2893 68.2579Z" fill="#E53F29"/>
<path d="M54.3225 46.711C54.3225 41.3316 52.2033 36.2516 48.3552 32.4066C44.5074 28.5621 39.4236 26.4446 34.0405 26.4446H33.965C33.6541 26.4455 33.3563 26.57 33.1372 26.7907C32.9181 27.0113 32.7956 27.3099 32.7969 27.6208L32.8686 46.7152C32.8711 47.3607 33.395 47.8827 34.0405 47.8827H53.1508C53.7978 47.8829 54.3225 47.3582 54.3225 46.711ZM35.2078 45.5391L35.145 28.8222C39.4905 29.0891 43.558 30.9268 46.6984 34.0647C49.8224 37.186 51.6586 41.2235 51.9405 45.5393H35.2078V45.5391Z" fill="#E53F29"/>
<path d="M26.136 34.3621C27.0234 34.3621 27.5901 33.3658 27.1496 32.6036L25.3906 29.5593C24.6345 28.2505 22.6051 29.4233 23.3613 30.7319L25.1204 33.7763C25.3374 34.1519 25.7312 34.3621 26.136 34.3621Z" fill="#E53F29"/>
<path d="M19.8418 39.9657C21.1624 40.7276 22.3202 38.6896 21.0129 37.9356L17.966 36.1779C16.6569 35.4223 15.4857 37.4529 16.7949 38.2081L19.8418 39.9657Z" fill="#E53F29"/>
<path d="M13.6777 46.791C13.6777 47.4382 14.2024 47.9629 14.8496 47.9629H18.3679C19.8793 47.9629 19.8793 45.6191 18.3679 45.6191H14.8496C14.2024 45.6191 13.6777 46.1438 13.6777 46.791Z" fill="#E53F29"/>
<path d="M17.4615 57.5395C17.6601 57.5395 17.8617 57.4889 18.0461 57.3825L21.0929 55.6249C22.4022 54.8695 21.2308 52.8394 19.9219 53.5947L16.875 55.3524C15.8651 55.9349 16.2876 57.5395 17.4615 57.5395Z" fill="#E53F29"/>
<path d="M23.9275 64.3711C24.4816 64.6913 25.2097 64.4946 25.5285 63.9429L27.2875 60.8985C28.0438 59.5899 26.0144 58.4172 25.2583 59.7258L23.4993 62.7702C23.1753 63.3305 23.3672 64.0474 23.9275 64.3711Z" fill="#E53F29"/>
<path d="M32.9482 62.3701V65.8854C32.9482 67.3968 35.292 67.3968 35.292 65.8854V62.3701C35.292 60.8587 32.9482 60.8587 32.9482 62.3701Z" fill="#E53F29"/>
<path d="M41.3592 59.2177C40.7989 59.5414 40.607 60.2583 40.9309 60.8186L42.69 63.863C43.447 65.1735 45.4771 64.0017 44.7192 62.6903L42.9601 59.646C42.6365 59.0855 41.9196 58.8938 41.3592 59.2177Z" fill="#E53F29"/>
<path d="M47.0673 55.4864L50.1141 57.2441C51.4346 58.0062 52.5926 55.968 51.2852 55.2139L48.2384 53.4562C46.9295 52.7006 45.7582 54.7312 47.0673 55.4864Z" fill="#E53F29"/>
</svg>
