<svg width="22" height="23" viewBox="0 0 22 23" fill="none" xmlns="http://www.w3.org/2000/svg">
<path d="M11 22.7883C4.9258 22.7883 0 17.7967 0 11.6413C0 5.48599 4.9258 0.494385 11 0.494385C17.0742 0.494385 22 5.48599 22 11.6413C22 17.7967 17.0742 22.7883 11 22.7883Z" fill="url(#paint0_linear_86_1622)"/>
<path d="M11.0001 5.4033C13.0043 5.4033 13.2419 5.40999 14.0339 5.44789C14.7665 5.48133 15.1647 5.60618 15.4287 5.71096C15.7785 5.84918 16.0293 6.01416 16.2911 6.27945C16.5529 6.54475 16.7157 6.7989 16.8521 7.15338C16.9555 7.4209 17.0765 7.82442 17.1117 8.56681C17.1469 9.36939 17.1557 9.61016 17.1557 11.6411C17.1557 13.6721 17.1491 13.9129 17.1117 14.7155C17.0787 15.4579 16.9555 15.8614 16.8521 16.1289C16.7157 16.4834 16.5529 16.7375 16.2911 17.0028C16.0293 17.2681 15.7785 17.4331 15.4287 17.5713C15.1647 17.6761 14.7665 17.7987 14.0339 17.8344C13.2419 17.8701 13.0043 17.879 11.0001 17.879C8.99586 17.879 8.75826 17.8723 7.96626 17.8344C7.23366 17.801 6.83546 17.6761 6.57146 17.5713C6.22166 17.4331 5.97086 17.2681 5.70906 17.0028C5.44726 16.7375 5.28446 16.4834 5.14806 16.1289C5.04466 15.8614 4.92366 15.4579 4.88846 14.7155C4.85326 13.9129 4.84446 13.6721 4.84446 11.6411C4.84446 9.61016 4.85106 9.36939 4.88846 8.56681C4.92146 7.82442 5.04466 7.4209 5.14806 7.15338C5.28446 6.7989 5.44726 6.54475 5.70906 6.27945C5.97086 6.01416 6.22166 5.84918 6.57146 5.71096C6.83546 5.60618 7.23366 5.48356 7.96626 5.44789C8.75826 5.40999 8.99586 5.4033 11.0001 5.4033ZM11.0001 4.03223C8.96066 4.03223 8.70546 4.04114 7.90466 4.07904C7.10606 4.11694 6.56046 4.24402 6.08086 4.43352C5.58806 4.62524 5.16786 4.88608 4.75206 5.30967C4.33406 5.73325 4.07886 6.15684 3.88526 6.65845C3.70046 7.14223 3.57286 7.69512 3.53546 8.50662C3.49806 9.31811 3.48926 9.57672 3.48926 11.6434C3.48926 13.71 3.49806 13.9686 3.53546 14.7801C3.57286 15.5894 3.69826 16.1423 3.88526 16.6283C4.07666 17.1254 4.33406 17.5513 4.75206 17.9726C5.17006 18.3962 5.58806 18.6548 6.08306 18.851C6.56046 19.0383 7.10606 19.1676 7.90686 19.2055C8.70766 19.2434 8.96286 19.2523 11.0023 19.2523C13.0417 19.2523 13.2969 19.2434 14.0977 19.2055C14.8963 19.1676 15.4419 19.0405 15.9215 18.851C16.4121 18.657 16.8323 18.3962 17.2481 17.9726C17.6661 17.549 17.9213 17.1254 18.1149 16.6238C18.2997 16.1401 18.4273 15.5872 18.4647 14.7757C18.5021 13.9642 18.5109 13.7056 18.5109 11.6389C18.5109 9.57227 18.5021 9.31366 18.4647 8.50216C18.4273 7.69289 18.3019 7.14 18.1149 6.65399C17.9235 6.15684 17.6661 5.73102 17.2481 5.30967C16.8301 4.88608 16.4121 4.62747 15.9171 4.43129C15.4397 4.24402 14.8941 4.11471 14.0933 4.07681C13.2947 4.04114 13.0395 4.03223 11.0001 4.03223Z" fill="white"/>
<path d="M11.0002 7.73315C8.87055 7.73315 7.14355 9.48323 7.14355 11.6413C7.14355 13.7993 8.87055 15.5494 11.0002 15.5494C13.1298 15.5494 14.8568 13.7993 14.8568 11.6413C14.8568 9.48323 13.1298 7.73315 11.0002 7.73315ZM11.0002 14.1783C9.61855 14.1783 8.49655 13.0436 8.49655 11.6413C8.49655 10.239 9.61855 9.10423 11.0002 9.10423C12.3818 9.10423 13.5038 10.239 13.5038 11.6413C13.5038 13.0436 12.3818 14.1783 11.0002 14.1783Z" fill="white"/>
<path d="M15.0086 8.49338C15.5069 8.49338 15.9109 8.08415 15.9109 7.57933C15.9109 7.07452 15.5069 6.66528 15.0086 6.66528C14.5104 6.66528 14.1064 7.07452 14.1064 7.57933C14.1064 8.08415 14.5104 8.49338 15.0086 8.49338Z" fill="white"/>
<defs>
<linearGradient id="paint0_linear_86_1622" x1="3.22182" y1="19.5234" x2="18.9846" y2="3.96845" gradientUnits="userSpaceOnUse">
<stop stop-color="#FFD521"/>
<stop offset="0.0551048" stop-color="#FFD020"/>
<stop offset="0.1241" stop-color="#FEC01E"/>
<stop offset="0.2004" stop-color="#FCA71B"/>
<stop offset="0.2821" stop-color="#FA8316"/>
<stop offset="0.3681" stop-color="#F85510"/>
<stop offset="0.4563" stop-color="#F51E09"/>
<stop offset="0.5" stop-color="#F30005"/>
<stop offset="0.5035" stop-color="#F20007"/>
<stop offset="0.5966" stop-color="#E1003B"/>
<stop offset="0.6879" stop-color="#D30067"/>
<stop offset="0.7757" stop-color="#C70088"/>
<stop offset="0.8589" stop-color="#BF00A0"/>
<stop offset="0.9357" stop-color="#BB00AF"/>
<stop offset="1" stop-color="#B900B4"/>
</linearGradient>
</defs>
</svg>
