<svg width="25" height="24" viewBox="0 0 25 24" fill="none" xmlns="http://www.w3.org/2000/svg">
<path d="M12.6934 24C19.3208 24 24.6934 18.6274 24.6934 12C24.6934 5.37258 19.3208 0 12.6934 0C6.06594 0 0.693359 5.37258 0.693359 12C0.693359 18.6274 6.06594 24 12.6934 24Z" fill="url(#paint0_linear_294_410)"/>
<path d="M18.5328 6.90449L16.3906 17.7092C16.3906 17.7092 16.0906 18.4592 15.2656 18.0982L10.3203 14.3061L8.52031 13.4389L5.49219 12.4217C5.49219 12.4217 5.02812 12.2576 4.98125 11.8967C4.93437 11.5357 5.50625 11.3436 5.50625 11.3436L17.5437 6.62324C17.5437 6.61856 18.5328 6.18262 18.5328 6.90449Z" fill="white"/>
<path d="M9.93516 17.5874C9.93516 17.5874 9.78984 17.5733 9.61172 17.0061C9.43359 16.4389 8.51953 13.4389 8.51953 13.4389L15.7898 8.82173C15.7898 8.82173 16.2117 8.5686 16.193 8.82173C16.193 8.82173 16.268 8.8686 16.043 9.07485C15.818 9.28579 10.3336 14.217 10.3336 14.217" fill="#D2E4F0"/>
<path d="M12.2154 15.7591L10.2602 17.5451C10.2602 17.5451 10.1055 17.6623 9.94141 17.5873L10.3165 14.2732" fill="#B5CFE4"/>
<defs>
<linearGradient id="paint0_linear_294_410" x1="12.6934" y1="0" x2="12.6934" y2="23.9124" gradientUnits="userSpaceOnUse">
<stop stop-color="#41BCE7"/>
<stop offset="1" stop-color="#22A6DC"/>
</linearGradient>
</defs>
</svg>
