<svg width="194" height="24" viewBox="0 0 194 24" fill="none" xmlns="http://www.w3.org/2000/svg">
<path d="M20.7913 10.999H22.7913C22.7913 5.869 18.9183 2 13.7812 2V4C17.8432 4 20.7913 6.943 20.7913 10.999Z" fill="#F47721"/>
<path d="M13.7913 7.99999C15.8943 7.99999 16.7913 8.89699 16.7913 11H18.7913C18.7913 7.77499 17.0163 5.99999 13.7913 5.99999V7.99999ZM17.2133 13.443C17.0211 13.2683 16.7686 13.1752 16.5091 13.1832C16.2496 13.1912 16.0033 13.2998 15.8223 13.486L13.4293 15.947C12.8533 15.837 11.6953 15.476 10.5033 14.287C9.3113 13.094 8.9503 11.933 8.8433 11.361L11.3023 8.96699C11.4887 8.78612 11.5974 8.53982 11.6055 8.2802C11.6135 8.02059 11.5202 7.76804 11.3453 7.57599L7.6503 3.51299C7.47534 3.32035 7.23218 3.2035 6.97245 3.18725C6.71272 3.17101 6.4569 3.25665 6.2593 3.42599L4.0893 5.28699C3.91641 5.46051 3.81322 5.69145 3.7993 5.93599C3.7843 6.18599 3.4983 12.108 8.0903 16.702C12.0963 20.707 17.1143 21 18.4963 21C18.6983 21 18.8223 20.994 18.8553 20.992C19.0998 20.9783 19.3306 20.8747 19.5033 20.701L21.3633 18.53C21.5328 18.3325 21.6186 18.0768 21.6025 17.817C21.5865 17.5573 21.4698 17.3141 21.2773 17.139L17.2133 13.443Z" fill="#F47721"/>
<path d="M40.771 16.38V7.62H42.451V16.38H40.771ZM37.131 12.8V11.22H46.091V12.8H37.131ZM50.4001 19V5.8L51.2601 6.74H47.2401V5H52.3801V19H50.4001ZM60.6135 15.56V14.16L67.7735 5H69.9335L62.8335 14.16L61.8135 13.84H72.9935V15.56H60.6135ZM68.3935 19V15.56L68.4535 13.84V10.8H70.3335V19H68.3935ZM78.238 19.16C77.2514 19.16 76.2914 19.0067 75.358 18.7C74.438 18.3933 73.6847 17.98 73.098 17.46L74.018 15.88C74.4847 16.32 75.0914 16.68 75.838 16.96C76.5847 17.24 77.3847 17.38 78.238 17.38C79.278 17.38 80.0847 17.16 80.658 16.72C81.2447 16.2667 81.538 15.66 81.538 14.9C81.538 14.1667 81.258 13.58 80.698 13.14C80.1514 12.6867 79.278 12.46 78.078 12.46H76.958V11.06L81.118 5.94L81.398 6.74H73.738V5H82.978V6.36L78.838 11.46L77.798 10.84H78.458C80.1514 10.84 81.418 11.22 82.258 11.98C83.1114 12.74 83.538 13.7067 83.538 14.88C83.538 15.6667 83.3447 16.3867 82.958 17.04C82.5714 17.6933 81.9847 18.2133 81.198 18.6C80.4247 18.9733 79.438 19.16 78.238 19.16ZM87.7634 19V5.8L88.6234 6.74H84.6034V5H89.7434V19H87.7634ZM104.057 19.16C102.817 19.16 101.757 18.8867 100.877 18.34C99.9968 17.7933 99.3235 17.0067 98.8568 15.98C98.4035 14.94 98.1768 13.6733 98.1768 12.18C98.1768 10.5933 98.4568 9.25333 99.0168 8.16C99.5768 7.06667 100.357 6.24 101.357 5.68C102.357 5.12 103.503 4.84 104.797 4.84C105.463 4.84 106.097 4.90667 106.697 5.04C107.31 5.17333 107.837 5.38 108.277 5.66L107.517 7.22C107.157 6.96667 106.743 6.79333 106.277 6.7C105.823 6.60667 105.343 6.56 104.837 6.56C103.41 6.56 102.277 7.00667 101.437 7.9C100.597 8.78 100.177 10.0933 100.177 11.84C100.177 12.12 100.19 12.4533 100.217 12.84C100.243 13.2267 100.31 13.6067 100.417 13.98L99.7368 13.3C99.9368 12.6867 100.25 12.1733 100.677 11.76C101.117 11.3333 101.637 11.02 102.237 10.82C102.85 10.6067 103.51 10.5 104.217 10.5C105.15 10.5 105.977 10.6733 106.697 11.02C107.417 11.3667 107.983 11.86 108.397 12.5C108.81 13.1267 109.017 13.8733 109.017 14.74C109.017 15.6333 108.797 16.4133 108.357 17.08C107.917 17.7467 107.323 18.26 106.577 18.62C105.83 18.98 104.99 19.16 104.057 19.16ZM103.977 17.54C104.59 17.54 105.123 17.4267 105.577 17.2C106.043 16.9733 106.41 16.66 106.677 16.26C106.943 15.8467 107.077 15.3667 107.077 14.82C107.077 13.9933 106.79 13.34 106.217 12.86C105.643 12.3667 104.863 12.12 103.877 12.12C103.237 12.12 102.677 12.24 102.197 12.48C101.717 12.72 101.337 13.0467 101.057 13.46C100.79 13.86 100.657 14.32 100.657 14.84C100.657 15.32 100.783 15.7667 101.037 16.18C101.29 16.58 101.663 16.9067 102.157 17.16C102.65 17.4133 103.257 17.54 103.977 17.54ZM115.981 19.16C114.847 19.16 113.867 18.9933 113.041 18.66C112.214 18.3267 111.574 17.8533 111.121 17.24C110.667 16.6133 110.441 15.88 110.441 15.04C110.441 14.2133 110.654 13.5133 111.081 12.94C111.521 12.3533 112.154 11.9133 112.981 11.62C113.807 11.3133 114.807 11.16 115.981 11.16C117.154 11.16 118.154 11.3133 118.981 11.62C119.821 11.9133 120.461 12.3533 120.901 12.94C121.341 13.5267 121.561 14.2267 121.561 15.04C121.561 15.88 121.334 16.6133 120.881 17.24C120.427 17.8533 119.781 18.3267 118.941 18.66C118.101 18.9933 117.114 19.16 115.981 19.16ZM115.981 17.54C117.101 17.54 117.974 17.3133 118.601 16.86C119.241 16.3933 119.561 15.7667 119.561 14.98C119.561 14.2067 119.241 13.6 118.601 13.16C117.974 12.7067 117.101 12.48 115.981 12.48C114.874 12.48 114.007 12.7067 113.381 13.16C112.754 13.6 112.441 14.2067 112.441 14.98C112.441 15.7667 112.754 16.3933 113.381 16.86C114.007 17.3133 114.874 17.54 115.981 17.54ZM115.981 12.24C114.914 12.24 114.007 12.1 113.261 11.82C112.514 11.5267 111.941 11.1133 111.541 10.58C111.141 10.0333 110.941 9.38667 110.941 8.64C110.941 7.85333 111.147 7.18 111.561 6.62C111.987 6.04667 112.581 5.60667 113.341 5.3C114.101 4.99333 114.981 4.84 115.981 4.84C116.994 4.84 117.881 4.99333 118.641 5.3C119.401 5.60667 119.994 6.04667 120.421 6.62C120.847 7.18 121.061 7.85333 121.061 8.64C121.061 9.38667 120.861 10.0333 120.461 10.58C120.061 11.1133 119.481 11.5267 118.721 11.82C117.961 12.1 117.047 12.24 115.981 12.24ZM115.981 10.96C116.954 10.96 117.714 10.76 118.261 10.36C118.821 9.96 119.101 9.41333 119.101 8.72C119.101 8.01333 118.814 7.46 118.241 7.06C117.667 6.66 116.914 6.46 115.981 6.46C115.047 6.46 114.301 6.66 113.741 7.06C113.194 7.46 112.921 8.01333 112.921 8.72C112.921 9.41333 113.187 9.96 113.721 10.36C114.267 10.76 115.021 10.96 115.981 10.96ZM128.852 19.16C127.718 19.16 126.738 18.9933 125.912 18.66C125.085 18.3267 124.445 17.8533 123.992 17.24C123.538 16.6133 123.312 15.88 123.312 15.04C123.312 14.2133 123.525 13.5133 123.952 12.94C124.392 12.3533 125.025 11.9133 125.852 11.62C126.678 11.3133 127.678 11.16 128.852 11.16C130.025 11.16 131.025 11.3133 131.852 11.62C132.692 11.9133 133.332 12.3533 133.772 12.94C134.212 13.5267 134.432 14.2267 134.432 15.04C134.432 15.88 134.205 16.6133 133.752 17.24C133.298 17.8533 132.652 18.3267 131.812 18.66C130.972 18.9933 129.985 19.16 128.852 19.16ZM128.852 17.54C129.972 17.54 130.845 17.3133 131.472 16.86C132.112 16.3933 132.432 15.7667 132.432 14.98C132.432 14.2067 132.112 13.6 131.472 13.16C130.845 12.7067 129.972 12.48 128.852 12.48C127.745 12.48 126.878 12.7067 126.252 13.16C125.625 13.6 125.312 14.2067 125.312 14.98C125.312 15.7667 125.625 16.3933 126.252 16.86C126.878 17.3133 127.745 17.54 128.852 17.54ZM128.852 12.24C127.785 12.24 126.878 12.1 126.132 11.82C125.385 11.5267 124.812 11.1133 124.412 10.58C124.012 10.0333 123.812 9.38667 123.812 8.64C123.812 7.85333 124.018 7.18 124.432 6.62C124.858 6.04667 125.452 5.60667 126.212 5.3C126.972 4.99333 127.852 4.84 128.852 4.84C129.865 4.84 130.752 4.99333 131.512 5.3C132.272 5.60667 132.865 6.04667 133.292 6.62C133.718 7.18 133.932 7.85333 133.932 8.64C133.932 9.38667 133.732 10.0333 133.332 10.58C132.932 11.1133 132.352 11.5267 131.592 11.82C130.832 12.1 129.918 12.24 128.852 12.24ZM128.852 10.96C129.825 10.96 130.585 10.76 131.132 10.36C131.692 9.96 131.972 9.41333 131.972 8.72C131.972 8.01333 131.685 7.46 131.112 7.06C130.538 6.66 129.785 6.46 128.852 6.46C127.918 6.46 127.172 6.66 126.612 7.06C126.065 7.46 125.792 8.01333 125.792 8.72C125.792 9.41333 126.058 9.96 126.592 10.36C127.138 10.76 127.892 10.96 128.852 10.96ZM147.094 19.16C145.96 19.16 144.98 18.9933 144.154 18.66C143.327 18.3267 142.687 17.8533 142.234 17.24C141.78 16.6133 141.554 15.88 141.554 15.04C141.554 14.2133 141.767 13.5133 142.194 12.94C142.634 12.3533 143.267 11.9133 144.094 11.62C144.92 11.3133 145.92 11.16 147.094 11.16C148.267 11.16 149.267 11.3133 150.094 11.62C150.934 11.9133 151.574 12.3533 152.014 12.94C152.454 13.5267 152.674 14.2267 152.674 15.04C152.674 15.88 152.447 16.6133 151.994 17.24C151.54 17.8533 150.894 18.3267 150.054 18.66C149.214 18.9933 148.227 19.16 147.094 19.16ZM147.094 17.54C148.214 17.54 149.087 17.3133 149.714 16.86C150.354 16.3933 150.674 15.7667 150.674 14.98C150.674 14.2067 150.354 13.6 149.714 13.16C149.087 12.7067 148.214 12.48 147.094 12.48C145.987 12.48 145.12 12.7067 144.494 13.16C143.867 13.6 143.554 14.2067 143.554 14.98C143.554 15.7667 143.867 16.3933 144.494 16.86C145.12 17.3133 145.987 17.54 147.094 17.54ZM147.094 12.24C146.027 12.24 145.12 12.1 144.374 11.82C143.627 11.5267 143.054 11.1133 142.654 10.58C142.254 10.0333 142.054 9.38667 142.054 8.64C142.054 7.85333 142.26 7.18 142.674 6.62C143.1 6.04667 143.694 5.60667 144.454 5.3C145.214 4.99333 146.094 4.84 147.094 4.84C148.107 4.84 148.994 4.99333 149.754 5.3C150.514 5.60667 151.107 6.04667 151.534 6.62C151.96 7.18 152.174 7.85333 152.174 8.64C152.174 9.38667 151.974 10.0333 151.574 10.58C151.174 11.1133 150.594 11.5267 149.834 11.82C149.074 12.1 148.16 12.24 147.094 12.24ZM147.094 10.96C148.067 10.96 148.827 10.76 149.374 10.36C149.934 9.96 150.214 9.41333 150.214 8.72C150.214 8.01333 149.927 7.46 149.354 7.06C148.78 6.66 148.027 6.46 147.094 6.46C146.16 6.46 145.414 6.66 144.854 7.06C144.307 7.46 144.034 8.01333 144.034 8.72C144.034 9.41333 144.3 9.96 144.834 10.36C145.38 10.76 146.134 10.96 147.094 10.96ZM154.305 15.56V14.16L161.465 5H163.625L156.525 14.16L155.505 13.84H166.685V15.56H154.305ZM162.085 19V15.56L162.145 13.84V10.8H164.025V19H162.085ZM173.539 19.16C172.406 19.16 171.426 18.9933 170.599 18.66C169.772 18.3267 169.132 17.8533 168.679 17.24C168.226 16.6133 167.999 15.88 167.999 15.04C167.999 14.2133 168.212 13.5133 168.639 12.94C169.079 12.3533 169.712 11.9133 170.539 11.62C171.366 11.3133 172.366 11.16 173.539 11.16C174.712 11.16 175.712 11.3133 176.539 11.62C177.379 11.9133 178.019 12.3533 178.459 12.94C178.899 13.5267 179.119 14.2267 179.119 15.04C179.119 15.88 178.892 16.6133 178.439 17.24C177.986 17.8533 177.339 18.3267 176.499 18.66C175.659 18.9933 174.672 19.16 173.539 19.16ZM173.539 17.54C174.659 17.54 175.532 17.3133 176.159 16.86C176.799 16.3933 177.119 15.7667 177.119 14.98C177.119 14.2067 176.799 13.6 176.159 13.16C175.532 12.7067 174.659 12.48 173.539 12.48C172.432 12.48 171.566 12.7067 170.939 13.16C170.312 13.6 169.999 14.2067 169.999 14.98C169.999 15.7667 170.312 16.3933 170.939 16.86C171.566 17.3133 172.432 17.54 173.539 17.54ZM173.539 12.24C172.472 12.24 171.566 12.1 170.819 11.82C170.072 11.5267 169.499 11.1133 169.099 10.58C168.699 10.0333 168.499 9.38667 168.499 8.64C168.499 7.85333 168.706 7.18 169.119 6.62C169.546 6.04667 170.139 5.60667 170.899 5.3C171.659 4.99333 172.539 4.84 173.539 4.84C174.552 4.84 175.439 4.99333 176.199 5.3C176.959 5.60667 177.552 6.04667 177.979 6.62C178.406 7.18 178.619 7.85333 178.619 8.64C178.619 9.38667 178.419 10.0333 178.019 10.58C177.619 11.1133 177.039 11.5267 176.279 11.82C175.519 12.1 174.606 12.24 173.539 12.24ZM173.539 10.96C174.512 10.96 175.272 10.76 175.819 10.36C176.379 9.96 176.659 9.41333 176.659 8.72C176.659 8.01333 176.372 7.46 175.799 7.06C175.226 6.66 174.472 6.46 173.539 6.46C172.606 6.46 171.859 6.66 171.299 7.06C170.752 7.46 170.479 8.01333 170.479 8.72C170.479 9.41333 170.746 9.96 171.279 10.36C171.826 10.76 172.579 10.96 173.539 10.96ZM180.75 15.56V14.16L187.91 5H190.07L182.97 14.16L181.95 13.84H193.13V15.56H180.75ZM188.53 19V15.56L188.59 13.84V10.8H190.47V19H188.53Z" fill="white"/>
</svg>
