<svg width="25" height="24" viewBox="0 0 25 24" fill="none" xmlns="http://www.w3.org/2000/svg">
<path d="M12.7285 24C6.10212 24 0.728516 18.6264 0.728516 12C0.728516 5.3736 6.10212 0 12.7285 0C19.3549 0 24.7285 5.3736 24.7285 12C24.7285 18.6264 19.3549 24 12.7285 24Z" fill="#25D366"/>
<path fill-rule="evenodd" clip-rule="evenodd" d="M18.3417 6.41272C16.8537 4.92232 14.8713 4.10152 12.7617 4.09912C8.41535 4.09912 4.87535 7.63672 4.87535 11.9855C4.87535 13.3751 5.23775 14.7335 5.92895 15.9287L4.81055 20.0159L8.99135 18.9191C10.1433 19.5479 11.4393 19.8791 12.7593 19.8791H12.7617C17.1081 19.8791 20.6457 16.3415 20.6481 11.9927C20.6505 9.88552 19.8321 7.90312 18.3417 6.41272ZM12.7641 18.5471H12.7617C11.5857 18.5471 10.4313 18.2303 9.42575 17.6327L9.18575 17.4911L6.70415 18.1415L7.36655 15.7223L7.21055 15.4751C6.55535 14.4311 6.20735 13.2263 6.20735 11.9855C6.20975 8.37112 9.14975 5.43112 12.7665 5.43112C14.5185 5.43112 16.1625 6.11512 17.4009 7.35352C18.6393 8.59192 19.3209 10.2407 19.3185 11.9903C19.3185 15.6071 16.3761 18.5471 12.7641 18.5471ZM16.3593 13.6367C16.1625 13.5383 15.1929 13.0607 15.0129 12.9959C14.8329 12.9311 14.7009 12.8975 14.5689 13.0943C14.4369 13.2911 14.0601 13.7351 13.9449 13.8671C13.8297 13.9991 13.7145 14.0159 13.5177 13.9175C13.3209 13.8191 12.6849 13.6103 11.9337 12.9383C11.3481 12.4151 10.9521 11.7695 10.8369 11.5727C10.7217 11.3759 10.8249 11.2679 10.9233 11.1695C11.0121 11.0807 11.1201 10.9391 11.2185 10.8239C11.3169 10.7087 11.3505 10.6271 11.4153 10.4951C11.4801 10.3631 11.4489 10.2479 11.3985 10.1495C11.3481 10.0511 10.9545 9.08152 10.7913 8.68552C10.6305 8.30152 10.4697 8.35432 10.3473 8.34712C10.2321 8.34232 10.1001 8.33992 9.97055 8.33992C9.83855 8.33992 9.62495 8.39032 9.44495 8.58712C9.26495 8.78392 8.75615 9.26152 8.75615 10.2311C8.75615 11.2007 9.46175 12.1391 9.56015 12.2687C9.65855 12.4007 10.9497 14.3903 12.9273 15.2447C13.3977 15.4487 13.7649 15.5687 14.0505 15.6599C14.5233 15.8111 14.9529 15.7895 15.2913 15.7391C15.6705 15.6815 16.4577 15.2615 16.6209 14.8031C16.7841 14.3423 16.7841 13.9487 16.7361 13.8671C16.6881 13.7855 16.5561 13.7375 16.3593 13.6367Z" fill="white"/>
</svg>
