<svg width="80" height="80" viewBox="0 0 80 80" fill="none" xmlns="http://www.w3.org/2000/svg">
<g clip-path="url(#clip0_59_361)">
<path d="M76.1497 22.856C75.8721 22.2715 75.1732 22.0227 74.5883 22.3004C74.0036 22.578 73.755 23.2771 74.0327 23.8618C76.4371 28.9226 77.6561 34.3523 77.6561 39.9999C77.6561 50.0583 73.7393 59.5146 66.6269 66.6269C59.5146 73.7393 50.0583 77.6561 39.9999 77.6561C34.0347 77.6561 28.33 76.3024 23.0447 73.6326C18.6408 71.4079 14.6622 68.2846 11.4316 64.5315L16.0552 66.0727C16.669 66.2776 17.3329 65.9455 17.5375 65.3315C17.7422 64.7174 17.4104 64.0538 16.7963 63.8491L8.47598 61.0757C8.09067 60.9474 7.66629 61.0274 7.35458 61.2877C7.04286 61.548 6.88801 61.9511 6.94536 62.3532L8.33208 72.0602C8.41567 72.6447 8.91692 73.0665 9.49083 73.0665C9.54598 73.0665 9.60176 73.0625 9.65801 73.0546C10.2988 72.963 10.744 72.3694 10.6524 71.7288L9.87864 66.3127C13.2691 70.1846 17.411 73.4124 21.9882 75.7246C27.6041 78.5615 33.6641 79.9999 39.9999 79.9999C50.6843 79.9999 60.7291 75.8391 68.2843 68.2843C75.8393 60.7291 79.9999 50.6843 79.9999 39.9999C79.9999 34.0018 78.7044 28.2337 76.1497 22.856Z" fill="#F47721"/>
<path d="M73.0548 17.6467L71.6681 7.93969C71.5766 7.29891 70.9819 6.85344 70.3423 6.94531C69.7016 7.03688 69.2564 7.63047 69.348 8.27109L70.1209 13.6817C62.5106 4.9625 51.6466 0 40 0C29.3156 0 19.2708 4.16078 11.7156 11.7156C4.16078 19.2708 0 29.3156 0 40C0 45.9981 1.29547 51.7663 3.85016 57.1439C4.05078 57.5662 4.47109 57.8133 4.90953 57.8133C5.07797 57.8133 5.24922 57.7767 5.41156 57.6995C5.99609 57.4219 6.24484 56.7228 5.96719 56.1381C3.56281 51.0773 2.34375 45.6477 2.34375 40C2.34375 29.9416 6.26062 20.4853 13.373 13.373C20.4853 6.26062 29.9416 2.34375 40 2.34375C51.0712 2.34375 61.3911 7.10844 68.5651 15.4673L63.9448 13.9272C63.3308 13.7227 62.6672 14.0544 62.4625 14.6684C62.2578 15.2825 62.5897 15.9461 63.2037 16.1508L71.5241 18.9242C71.6451 18.9645 71.7703 18.9844 71.8945 18.9844C72.1651 18.9844 72.4319 18.8906 72.6456 18.7122C72.9575 18.4519 73.1122 18.0487 73.0548 17.6467Z" fill="#F47721"/>
<path d="M33.6146 22.356C33.6048 21.7149 33.082 21.2023 32.4432 21.2023C32.437 21.2023 32.4307 21.2023 32.4246 21.2024C31.7774 21.2124 31.261 21.7452 31.271 22.3923L31.3045 24.5471L30.4357 25.3724C29.967 25.8185 29.9477 26.5602 30.3935 27.0295C30.624 27.272 30.9334 27.3941 31.2432 27.3941C31.5331 27.3941 31.8234 27.2873 32.0502 27.0718L33.2915 25.8926C33.529 25.667 33.6612 25.3523 33.656 25.0248L33.6146 22.356Z" fill="#F47721"/>
<path d="M62.9624 20.7223C62.5457 20.2272 61.8065 20.1634 61.3113 20.5801C60.8162 20.9968 60.7524 21.7361 61.1692 22.2312C64.352 26.0139 66.4292 30.5373 67.2454 35.3445L66.8942 34.9997C66.2096 34.3281 65.271 34.0058 64.3185 34.1168C63.366 34.2273 62.5259 34.7554 62.0135 35.5658L61.8128 35.8831C61.2665 35.8753 60.7214 36.0731 60.3013 36.4667L58.759 34.6404C58.3415 34.1459 57.602 34.0837 57.1076 34.5012C56.6131 34.9187 56.5507 35.6581 56.9684 36.1526L59.3268 38.9454C59.5374 39.1948 59.8426 39.3451 60.1687 39.36C60.4949 39.3743 60.8123 39.2529 61.0448 39.0239L61.8009 38.2786L62.7307 38.9234L59.2432 45.8467L59.0535 45.8608C58.7898 45.8793 58.532 45.7698 58.364 45.5653L53.722 39.9078C53.3113 39.4073 52.5729 39.3347 52.0728 39.7451C51.5724 40.1556 51.4996 40.894 51.9101 41.3943L56.5521 47.0518C57.2032 47.8454 58.2023 48.2742 59.2267 48.1979L60.7367 48.0861L56.1201 58.762C55.7848 59.5373 55.3396 60.2592 54.7973 60.9072L51.1115 65.3104C49.2709 66.1186 47.3415 66.7231 45.3551 67.1136L43.3226 65.3476C43.0726 65.1362 42.9739 64.7975 43.0709 64.485L43.426 63.3408C43.5734 62.8659 43.4051 62.3497 43.006 62.0529L40.7079 60.344C40.4731 60.1693 40.3496 59.8803 40.3859 59.5898L40.5732 58.0909C40.6128 57.7748 40.5218 57.4562 40.3215 57.2086C40.1212 56.9609 39.8285 56.8054 39.5112 56.7781L29.0617 55.8759C28.6499 55.8403 28.2593 55.6626 27.962 55.3756L24.8324 52.354C24.4817 52.0154 24.2806 51.5415 24.2806 51.054V46.6931C24.2806 46.4959 24.3521 46.3054 24.4821 46.157L28.0456 42.0847C28.2226 41.8823 28.3248 41.6251 28.3346 41.3562L28.3713 40.3653C28.3829 40.0558 28.5734 39.7751 28.857 39.6503L31.644 38.424L36.8831 38.2947C37.0029 38.2953 37.1054 38.3779 37.1253 38.5023C37.2779 39.4561 37.942 40.2383 38.8584 40.5437L42.6053 41.7928C43.3426 42.0384 44.1467 41.8545 44.7038 41.3125C45.1799 40.8493 45.3996 40.1987 45.3128 39.555L50.0174 39.1823C50.9162 39.1111 51.7437 38.6578 52.2873 37.9384C52.8309 37.219 53.0414 36.2993 52.8646 35.4151L52.7323 34.7533C52.5162 33.6731 51.5256 32.9267 50.4278 33.0206L47.9654 33.2279L47.5949 32.8104L50.8493 29.5561C51.307 29.0984 51.307 28.3564 50.8493 27.8989C50.3917 27.4412 49.6496 27.4412 49.1921 27.8989L45.2538 31.8367L43.9293 32.394L40.2454 29.5826C39.9412 29.3504 39.5423 29.2815 39.1779 29.3979L34.0607 31.0326C33.9137 31.0795 33.7712 31.137 33.6343 31.204L33.9968 29.6737L38.0484 26.7075L42.2303 26.0879C42.744 26.0118 43.1464 25.6067 43.2188 25.0925L43.6946 21.7203C43.7395 21.4029 43.6523 21.0812 43.4537 20.8298L41.7367 18.6576C41.507 18.3672 41.1543 18.2008 40.7835 18.2129C40.4134 18.2236 40.0701 18.4086 39.8576 18.7117L38.5467 20.5822L37.1749 20.4704L39.4567 16.1215H41.816L43.5993 19.3326C43.8165 19.7237 44.2364 19.9554 44.6842 19.934C45.1309 19.9109 45.5256 19.6354 45.7014 19.2242L47.3485 15.369C47.6415 14.6829 47.5606 13.9048 47.1439 13.2967C51.019 14.3298 54.6467 16.2037 57.7695 18.8312C58.2648 19.2479 59.0039 19.1843 59.4206 18.689C59.8373 18.1939 59.7735 17.4547 59.2784 17.0379C53.5582 12.2248 46.2801 9.74169 38.7803 10.045C31.2379 10.3504 24.1428 13.46 18.8017 18.8012C13.4606 24.1423 10.351 31.2375 10.0454 38.7797C9.74166 46.2776 12.2251 53.5573 17.0381 59.2776C17.2698 59.5531 17.6013 59.695 17.9354 59.695C18.2017 59.695 18.4695 59.6047 18.6893 59.4198C19.1845 59.0031 19.2482 58.2639 18.8315 57.7687C14.3959 52.4968 12.1073 45.7868 12.3873 38.8747C12.6688 31.9223 15.5354 25.382 20.4588 20.4586C25.3824 15.535 31.9228 12.6686 38.8751 12.387C40.4526 12.3231 42.0193 12.3945 43.561 12.5933L45.1506 14.5479L44.4862 16.1029L43.5299 14.3811C43.3234 14.0089 42.931 13.7781 42.5054 13.7781H38.7479C38.3123 13.7781 37.9126 14.0198 37.7101 14.4056L35.0704 19.437C34.7104 20.1233 34.7187 20.9383 35.0923 21.6172C35.466 22.2961 36.1503 22.7389 36.9224 22.8018L39.0254 22.9733C39.4393 23.0067 39.8415 22.8184 40.0803 22.4779L40.8735 21.3461L41.3035 21.8901L41.0203 23.8983L37.4181 24.432C37.2298 24.4598 37.051 24.5333 36.8974 24.6456L32.2634 28.0383C32.0385 28.2029 31.8796 28.4425 31.8153 28.7137L31.3121 30.8383L29.7382 30.6462C28.7388 30.5243 27.797 31.0981 27.4467 32.0414L26.479 34.6464C26.2699 35.2095 26.3053 35.84 26.5762 36.3762C26.847 36.9125 27.3335 37.3151 27.911 37.4809L27.9459 37.4909L27.9128 37.5054C26.8128 37.9895 26.0734 39.0781 26.0288 40.279L26.0074 40.8545L22.7178 44.6142C22.2138 45.1901 21.9365 45.9286 21.9365 46.6937V51.0547C21.9365 52.1745 22.3985 53.2629 23.2042 54.0408L26.3337 57.0625C27.0168 57.722 27.914 58.1301 28.8598 58.2117L38.0962 59.0092L38.0599 59.3C37.9192 60.427 38.3978 61.5481 39.3092 62.2258L40.9412 63.4393L40.832 63.7911C40.4556 65.0039 40.8389 66.3175 41.7965 67.1276L42.2735 67.5422C41.8923 67.5734 41.5098 67.5983 41.1257 67.6137C34.2139 67.8923 27.5035 65.6048 22.2317 61.1692C21.7365 60.7525 20.9973 60.8162 20.5806 61.3114C20.1638 61.8065 20.2276 62.5459 20.7228 62.9625C26.1303 67.5123 32.9304 69.9803 39.992 69.9801C40.4004 69.9801 40.8107 69.9719 41.2207 69.9553C48.7631 69.6498 55.8582 66.5401 61.1992 61.199C66.5403 55.8579 69.6499 48.7626 69.9554 41.2203C70.259 33.7223 67.7756 26.4426 62.9624 20.7223ZM34.2795 33.705C34.3743 33.4954 34.5543 33.3353 34.7734 33.2654L37.4118 32.4226L39.7267 35.2625L39.4585 36.0556C39.2512 36.6686 39.5801 37.3337 40.1932 37.5411C40.3176 37.5833 40.4443 37.6031 40.5689 37.6031C41.0574 37.6031 41.5135 37.295 41.6789 36.8064L41.9788 35.9195C42.2188 35.2097 42.0795 34.439 41.606 33.8583L40.9832 33.0942L43.047 34.6692C43.3809 34.9239 43.8253 34.9806 44.2124 34.8176L45.6903 34.1958L46.6018 35.2229C46.8471 35.4992 47.2079 35.6433 47.5767 35.6128L50.4649 35.3695L50.5659 35.8748C50.6282 36.187 50.4995 36.4164 50.417 36.5254C50.3346 36.6343 50.1492 36.8211 49.8318 36.8461L44.816 37.2434C44.1881 37.2931 43.6243 37.62 43.2693 38.1403C43.0079 38.5233 42.8853 38.9734 42.9117 39.4248L39.599 38.3206C39.5143 38.2925 39.4531 38.2201 39.4379 38.1253C39.2379 36.8756 38.1481 35.9512 36.8882 35.9512C36.8671 35.9512 36.8459 35.9515 36.8246 35.952L33.2212 36.0409L34.2795 33.705ZM29.5945 32.9895L31.1873 33.1837C31.4538 33.2162 31.7156 33.1989 31.9631 33.1384L30.7335 35.8526L28.7432 35.2812L29.5945 32.9895ZM67.6137 41.1258C67.3321 48.0781 64.4656 54.6186 59.5421 59.542C58.7888 60.2953 57.9973 60.9998 57.1726 61.655C57.6032 61.04 57.9721 60.3836 58.2709 59.6926L63.6559 47.2398C63.8187 46.8634 63.7729 46.4295 63.5353 46.0954C63.2976 45.7614 62.9023 45.5756 62.4937 45.6061L61.969 45.645L64.8937 39.839C65.376 38.8811 65.0753 37.6976 64.1938 37.0862L63.9374 36.9084L63.9942 36.8187C64.1751 36.5326 64.444 36.4618 64.5884 36.4451C64.7326 36.4281 65.0109 36.4356 65.2524 36.6728L67.6171 38.9934C67.6424 39.7012 67.6426 40.4123 67.6137 41.1258Z" fill="#F47721"/>
</g>
<defs>
<clipPath id="clip0_59_361">
<rect width="80" height="80" fill="white"/>
</clipPath>
</defs>
</svg>
